<?xml version="1.0" encoding="UTF-8" standalone="no"?>
<svg width="226.483mm" height="170.039mm"
 viewBox="0 0 642 482"
 xmlns="http://www.w3.org/2000/svg" xmlns:xlink="http://www.w3.org/1999/xlink"  version="1.2" baseProfile="tiny">
<title>Qt SVG Document</title>
<desc>Generated with Qt</desc>
<defs>
</defs>
<g fill="none" stroke="black" stroke-width="1" fill-rule="evenodd" stroke-linecap="square" stroke-linejoin="bevel" >

<g fill="none" stroke="#000000" stroke-opacity="1" stroke-width="1" stroke-linecap="square" stroke-linejoin="bevel" transform="matrix(1,0,0,1,0,0)"
font-family=".AppleSystemUIFont" font-size="13" font-weight="400" font-style="normal" 
>
</g>

<g fill="none" stroke="#000000" stroke-opacity="1" stroke-width="1" stroke-linecap="square" stroke-linejoin="bevel" transform="matrix(1.00313,0,0,1.00313,0,0)"
font-family=".AppleSystemUIFont" font-size="13" font-weight="400" font-style="normal" 
>
</g>

<g fill="none" stroke="#000000" stroke-opacity="1" stroke-width="1" stroke-linecap="round" stroke-linejoin="round" transform="matrix(1.00313,0,0,1.00313,0,0)"
font-family=".AppleSystemUIFont" font-size="13" font-weight="400" font-style="normal" 
>
<polyline fill="none" vector-effect="none" points="32.5,457.5 36.5,457.5 " />
<polyline fill="none" vector-effect="none" points="624.5,457.5 620.5,457.5 " />
</g>

<g fill="none" stroke="#000000" stroke-opacity="1" stroke-width="1" stroke-linecap="square" stroke-linejoin="bevel" transform="matrix(1.00313,0,0,1.00313,0,0)"
font-family=".AppleSystemUIFont" font-size="13" font-weight="400" font-style="normal" 
>
</g>

<g fill="none" stroke="#000000" stroke-opacity="1" stroke-width="1" stroke-linecap="square" stroke-linejoin="bevel" transform="matrix(1.00313,0,0,1.00313,11.2068,462.84)"
font-family=".AppleSystemUIFont" font-size="13" font-weight="400" font-style="normal" 
>
</g>

<g fill="none" stroke="#000000" stroke-opacity="1" stroke-width="1" stroke-linecap="square" stroke-linejoin="bevel" transform="matrix(1.00313,0,0,1.00313,11.2068,462.84)"
font-family=".AppleSystemUIFont" font-size="13" font-weight="400" font-style="normal" 
>
</g>

<g fill="none" stroke="#000000" stroke-opacity="1" stroke-width="1" stroke-linecap="square" stroke-linejoin="bevel" transform="matrix(1.00313,0,0,1.00313,11.2068,462.84)"
font-family=".AppleSystemUIFont" font-size="13" font-weight="400" font-style="normal" 
>
</g>

<g fill="none" stroke="#000000" stroke-opacity="1" stroke-width="1" stroke-linecap="square" stroke-linejoin="bevel" transform="matrix(1.00313,0,0,1.00313,11.2068,462.84)"
font-family=".AppleSystemUIFont" font-size="13" font-weight="400" font-style="normal" 
>
</g>

<g fill="none" stroke="#000000" stroke-opacity="1" stroke-width="1" stroke-linecap="square" stroke-linejoin="bevel" transform="matrix(1.00313,0,0,1.00313,11.2068,462.84)"
font-family=".AppleSystemUIFont" font-size="13" font-weight="400" font-style="normal" 
>
</g>

<g fill="none" stroke="#000000" stroke-opacity="1" stroke-width="1" stroke-linecap="square" stroke-linejoin="bevel" transform="matrix(1.00313,0,0,1.00313,11.2068,462.84)"
font-family="Sans" font-size="9" font-weight="400" font-style="normal" 
>
<text fill="#000000" fill-opacity="1" stroke="none" xml:space="preserve" x="0" y="0" font-family="Sans" font-size="9" font-weight="400" font-style="normal" 
 > 0.2</text>
</g>

<g fill="none" stroke="#000000" stroke-opacity="1" stroke-width="1" stroke-linecap="square" stroke-linejoin="bevel" transform="matrix(1.00313,0,0,1.00313,11.2068,462.84)"
font-family=".AppleSystemUIFont" font-size="13" font-weight="400" font-style="normal" 
>
</g>

<g fill="none" stroke="#000000" stroke-opacity="1" stroke-width="1" stroke-linecap="square" stroke-linejoin="bevel" transform="matrix(1.00313,0,0,1.00313,0,0)"
font-family=".AppleSystemUIFont" font-size="13" font-weight="400" font-style="normal" 
>
</g>

<g fill="none" stroke="#000000" stroke-opacity="1" stroke-width="1" stroke-linecap="round" stroke-linejoin="round" transform="matrix(1.00313,0,0,1.00313,0,0)"
font-family=".AppleSystemUIFont" font-size="13" font-weight="400" font-style="normal" 
>
<polyline fill="none" vector-effect="none" points="32.5,408.5 36.5,408.5 " />
<polyline fill="none" vector-effect="none" points="624.5,408.5 620.5,408.5 " />
</g>

<g fill="none" stroke="#000000" stroke-opacity="1" stroke-width="1" stroke-linecap="square" stroke-linejoin="bevel" transform="matrix(1.00313,0,0,1.00313,0,0)"
font-family=".AppleSystemUIFont" font-size="13" font-weight="400" font-style="normal" 
>
</g>

<g fill="none" stroke="#000000" stroke-opacity="1" stroke-width="1" stroke-linecap="square" stroke-linejoin="bevel" transform="matrix(1.00313,0,0,1.00313,11.0971,412.684)"
font-family=".AppleSystemUIFont" font-size="13" font-weight="400" font-style="normal" 
>
</g>

<g fill="none" stroke="#000000" stroke-opacity="1" stroke-width="1" stroke-linecap="square" stroke-linejoin="bevel" transform="matrix(1.00313,0,0,1.00313,11.0971,412.684)"
font-family=".AppleSystemUIFont" font-size="13" font-weight="400" font-style="normal" 
>
</g>

<g fill="none" stroke="#000000" stroke-opacity="1" stroke-width="1" stroke-linecap="square" stroke-linejoin="bevel" transform="matrix(1.00313,0,0,1.00313,11.0971,412.684)"
font-family=".AppleSystemUIFont" font-size="13" font-weight="400" font-style="normal" 
>
</g>

<g fill="none" stroke="#000000" stroke-opacity="1" stroke-width="1" stroke-linecap="square" stroke-linejoin="bevel" transform="matrix(1.00313,0,0,1.00313,11.0971,412.684)"
font-family=".AppleSystemUIFont" font-size="13" font-weight="400" font-style="normal" 
>
</g>

<g fill="none" stroke="#000000" stroke-opacity="1" stroke-width="1" stroke-linecap="square" stroke-linejoin="bevel" transform="matrix(1.00313,0,0,1.00313,11.0971,412.684)"
font-family=".AppleSystemUIFont" font-size="13" font-weight="400" font-style="normal" 
>
</g>

<g fill="none" stroke="#000000" stroke-opacity="1" stroke-width="1" stroke-linecap="square" stroke-linejoin="bevel" transform="matrix(1.00313,0,0,1.00313,11.0971,412.684)"
font-family="Sans" font-size="9" font-weight="400" font-style="normal" 
>
<text fill="#000000" fill-opacity="1" stroke="none" xml:space="preserve" x="0" y="0" font-family="Sans" font-size="9" font-weight="400" font-style="normal" 
 > 0.4</text>
</g>

<g fill="none" stroke="#000000" stroke-opacity="1" stroke-width="1" stroke-linecap="square" stroke-linejoin="bevel" transform="matrix(1.00313,0,0,1.00313,11.0971,412.684)"
font-family=".AppleSystemUIFont" font-size="13" font-weight="400" font-style="normal" 
>
</g>

<g fill="none" stroke="#000000" stroke-opacity="1" stroke-width="1" stroke-linecap="square" stroke-linejoin="bevel" transform="matrix(1.00313,0,0,1.00313,0,0)"
font-family=".AppleSystemUIFont" font-size="13" font-weight="400" font-style="normal" 
>
</g>

<g fill="none" stroke="#000000" stroke-opacity="1" stroke-width="1" stroke-linecap="round" stroke-linejoin="round" transform="matrix(1.00313,0,0,1.00313,0,0)"
font-family=".AppleSystemUIFont" font-size="13" font-weight="400" font-style="normal" 
>
<polyline fill="none" vector-effect="none" points="32.5,358.5 36.5,358.5 " />
<polyline fill="none" vector-effect="none" points="624.5,358.5 620.5,358.5 " />
</g>

<g fill="none" stroke="#000000" stroke-opacity="1" stroke-width="1" stroke-linecap="square" stroke-linejoin="bevel" transform="matrix(1.00313,0,0,1.00313,0,0)"
font-family=".AppleSystemUIFont" font-size="13" font-weight="400" font-style="normal" 
>
</g>

<g fill="none" stroke="#000000" stroke-opacity="1" stroke-width="1" stroke-linecap="square" stroke-linejoin="bevel" transform="matrix(1.00313,0,0,1.00313,11.1284,363.531)"
font-family=".AppleSystemUIFont" font-size="13" font-weight="400" font-style="normal" 
>
</g>

<g fill="none" stroke="#000000" stroke-opacity="1" stroke-width="1" stroke-linecap="square" stroke-linejoin="bevel" transform="matrix(1.00313,0,0,1.00313,11.1284,363.531)"
font-family=".AppleSystemUIFont" font-size="13" font-weight="400" font-style="normal" 
>
</g>

<g fill="none" stroke="#000000" stroke-opacity="1" stroke-width="1" stroke-linecap="square" stroke-linejoin="bevel" transform="matrix(1.00313,0,0,1.00313,11.1284,363.531)"
font-family=".AppleSystemUIFont" font-size="13" font-weight="400" font-style="normal" 
>
</g>

<g fill="none" stroke="#000000" stroke-opacity="1" stroke-width="1" stroke-linecap="square" stroke-linejoin="bevel" transform="matrix(1.00313,0,0,1.00313,11.1284,363.531)"
font-family=".AppleSystemUIFont" font-size="13" font-weight="400" font-style="normal" 
>
</g>

<g fill="none" stroke="#000000" stroke-opacity="1" stroke-width="1" stroke-linecap="square" stroke-linejoin="bevel" transform="matrix(1.00313,0,0,1.00313,11.1284,363.531)"
font-family=".AppleSystemUIFont" font-size="13" font-weight="400" font-style="normal" 
>
</g>

<g fill="none" stroke="#000000" stroke-opacity="1" stroke-width="1" stroke-linecap="square" stroke-linejoin="bevel" transform="matrix(1.00313,0,0,1.00313,11.1284,363.531)"
font-family="Sans" font-size="9" font-weight="400" font-style="normal" 
>
<text fill="#000000" fill-opacity="1" stroke="none" xml:space="preserve" x="0" y="0" font-family="Sans" font-size="9" font-weight="400" font-style="normal" 
 > 0.6</text>
</g>

<g fill="none" stroke="#000000" stroke-opacity="1" stroke-width="1" stroke-linecap="square" stroke-linejoin="bevel" transform="matrix(1.00313,0,0,1.00313,11.1284,363.531)"
font-family=".AppleSystemUIFont" font-size="13" font-weight="400" font-style="normal" 
>
</g>

<g fill="none" stroke="#000000" stroke-opacity="1" stroke-width="1" stroke-linecap="square" stroke-linejoin="bevel" transform="matrix(1.00313,0,0,1.00313,0,0)"
font-family=".AppleSystemUIFont" font-size="13" font-weight="400" font-style="normal" 
>
</g>

<g fill="none" stroke="#000000" stroke-opacity="1" stroke-width="1" stroke-linecap="round" stroke-linejoin="round" transform="matrix(1.00313,0,0,1.00313,0,0)"
font-family=".AppleSystemUIFont" font-size="13" font-weight="400" font-style="normal" 
>
<polyline fill="none" vector-effect="none" points="32.5,308.5 36.5,308.5 " />
<polyline fill="none" vector-effect="none" points="624.5,308.5 620.5,308.5 " />
</g>

<g fill="none" stroke="#000000" stroke-opacity="1" stroke-width="1" stroke-linecap="square" stroke-linejoin="bevel" transform="matrix(1.00313,0,0,1.00313,0,0)"
font-family=".AppleSystemUIFont" font-size="13" font-weight="400" font-style="normal" 
>
</g>

<g fill="none" stroke="#000000" stroke-opacity="1" stroke-width="1" stroke-linecap="square" stroke-linejoin="bevel" transform="matrix(1.00313,0,0,1.00313,10.2037,313.375)"
font-family=".AppleSystemUIFont" font-size="13" font-weight="400" font-style="normal" 
>
</g>

<g fill="none" stroke="#000000" stroke-opacity="1" stroke-width="1" stroke-linecap="square" stroke-linejoin="bevel" transform="matrix(1.00313,0,0,1.00313,10.2037,313.375)"
font-family=".AppleSystemUIFont" font-size="13" font-weight="400" font-style="normal" 
>
</g>

<g fill="none" stroke="#000000" stroke-opacity="1" stroke-width="1" stroke-linecap="square" stroke-linejoin="bevel" transform="matrix(1.00313,0,0,1.00313,10.2037,313.375)"
font-family=".AppleSystemUIFont" font-size="13" font-weight="400" font-style="normal" 
>
</g>

<g fill="none" stroke="#000000" stroke-opacity="1" stroke-width="1" stroke-linecap="square" stroke-linejoin="bevel" transform="matrix(1.00313,0,0,1.00313,10.2037,313.375)"
font-family=".AppleSystemUIFont" font-size="13" font-weight="400" font-style="normal" 
>
</g>

<g fill="none" stroke="#000000" stroke-opacity="1" stroke-width="1" stroke-linecap="square" stroke-linejoin="bevel" transform="matrix(1.00313,0,0,1.00313,10.2037,313.375)"
font-family=".AppleSystemUIFont" font-size="13" font-weight="400" font-style="normal" 
>
</g>

<g fill="none" stroke="#000000" stroke-opacity="1" stroke-width="1" stroke-linecap="square" stroke-linejoin="bevel" transform="matrix(1.00313,0,0,1.00313,10.2037,313.375)"
font-family="Sans" font-size="9" font-weight="400" font-style="normal" 
>
<text fill="#000000" fill-opacity="1" stroke="none" xml:space="preserve" x="0" y="0" font-family="Sans" font-size="9" font-weight="400" font-style="normal" 
 > 0.8</text>
</g>

<g fill="none" stroke="#000000" stroke-opacity="1" stroke-width="1" stroke-linecap="square" stroke-linejoin="bevel" transform="matrix(1.00313,0,0,1.00313,10.2037,313.375)"
font-family=".AppleSystemUIFont" font-size="13" font-weight="400" font-style="normal" 
>
</g>

<g fill="none" stroke="#000000" stroke-opacity="1" stroke-width="1" stroke-linecap="square" stroke-linejoin="bevel" transform="matrix(1.00313,0,0,1.00313,0,0)"
font-family=".AppleSystemUIFont" font-size="13" font-weight="400" font-style="normal" 
>
</g>

<g fill="none" stroke="#000000" stroke-opacity="1" stroke-width="1" stroke-linecap="round" stroke-linejoin="round" transform="matrix(1.00313,0,0,1.00313,0,0)"
font-family=".AppleSystemUIFont" font-size="13" font-weight="400" font-style="normal" 
>
<polyline fill="none" vector-effect="none" points="32.5,259.5 36.5,259.5 " />
<polyline fill="none" vector-effect="none" points="624.5,259.5 620.5,259.5 " />
</g>

<g fill="none" stroke="#000000" stroke-opacity="1" stroke-width="1" stroke-linecap="square" stroke-linejoin="bevel" transform="matrix(1.00313,0,0,1.00313,0,0)"
font-family=".AppleSystemUIFont" font-size="13" font-weight="400" font-style="normal" 
>
</g>

<g fill="none" stroke="#000000" stroke-opacity="1" stroke-width="1" stroke-linecap="square" stroke-linejoin="bevel" transform="matrix(1.00313,0,0,1.00313,22.3509,263.218)"
font-family=".AppleSystemUIFont" font-size="13" font-weight="400" font-style="normal" 
>
</g>

<g fill="none" stroke="#000000" stroke-opacity="1" stroke-width="1" stroke-linecap="square" stroke-linejoin="bevel" transform="matrix(1.00313,0,0,1.00313,22.3509,263.218)"
font-family=".AppleSystemUIFont" font-size="13" font-weight="400" font-style="normal" 
>
</g>

<g fill="none" stroke="#000000" stroke-opacity="1" stroke-width="1" stroke-linecap="square" stroke-linejoin="bevel" transform="matrix(1.00313,0,0,1.00313,22.3509,263.218)"
font-family=".AppleSystemUIFont" font-size="13" font-weight="400" font-style="normal" 
>
</g>

<g fill="none" stroke="#000000" stroke-opacity="1" stroke-width="1" stroke-linecap="square" stroke-linejoin="bevel" transform="matrix(1.00313,0,0,1.00313,22.3509,263.218)"
font-family=".AppleSystemUIFont" font-size="13" font-weight="400" font-style="normal" 
>
</g>

<g fill="none" stroke="#000000" stroke-opacity="1" stroke-width="1" stroke-linecap="square" stroke-linejoin="bevel" transform="matrix(1.00313,0,0,1.00313,22.3509,263.218)"
font-family=".AppleSystemUIFont" font-size="13" font-weight="400" font-style="normal" 
>
</g>

<g fill="none" stroke="#000000" stroke-opacity="1" stroke-width="1" stroke-linecap="square" stroke-linejoin="bevel" transform="matrix(1.00313,0,0,1.00313,22.3509,263.218)"
font-family="Sans" font-size="9" font-weight="400" font-style="normal" 
>
<text fill="#000000" fill-opacity="1" stroke="none" xml:space="preserve" x="0" y="0" font-family="Sans" font-size="9" font-weight="400" font-style="normal" 
 > 1</text>
</g>

<g fill="none" stroke="#000000" stroke-opacity="1" stroke-width="1" stroke-linecap="square" stroke-linejoin="bevel" transform="matrix(1.00313,0,0,1.00313,22.3509,263.218)"
font-family=".AppleSystemUIFont" font-size="13" font-weight="400" font-style="normal" 
>
</g>

<g fill="none" stroke="#000000" stroke-opacity="1" stroke-width="1" stroke-linecap="square" stroke-linejoin="bevel" transform="matrix(1.00313,0,0,1.00313,0,0)"
font-family=".AppleSystemUIFont" font-size="13" font-weight="400" font-style="normal" 
>
</g>

<g fill="none" stroke="#000000" stroke-opacity="1" stroke-width="1" stroke-linecap="round" stroke-linejoin="round" transform="matrix(1.00313,0,0,1.00313,0,0)"
font-family=".AppleSystemUIFont" font-size="13" font-weight="400" font-style="normal" 
>
<polyline fill="none" vector-effect="none" points="32.5,209.5 36.5,209.5 " />
<polyline fill="none" vector-effect="none" points="624.5,209.5 620.5,209.5 " />
</g>

<g fill="none" stroke="#000000" stroke-opacity="1" stroke-width="1" stroke-linecap="square" stroke-linejoin="bevel" transform="matrix(1.00313,0,0,1.00313,0,0)"
font-family=".AppleSystemUIFont" font-size="13" font-weight="400" font-style="normal" 
>
</g>

<g fill="none" stroke="#000000" stroke-opacity="1" stroke-width="1" stroke-linecap="square" stroke-linejoin="bevel" transform="matrix(1.00313,0,0,1.00313,12.6645,214.065)"
font-family=".AppleSystemUIFont" font-size="13" font-weight="400" font-style="normal" 
>
</g>

<g fill="none" stroke="#000000" stroke-opacity="1" stroke-width="1" stroke-linecap="square" stroke-linejoin="bevel" transform="matrix(1.00313,0,0,1.00313,12.6645,214.065)"
font-family=".AppleSystemUIFont" font-size="13" font-weight="400" font-style="normal" 
>
</g>

<g fill="none" stroke="#000000" stroke-opacity="1" stroke-width="1" stroke-linecap="square" stroke-linejoin="bevel" transform="matrix(1.00313,0,0,1.00313,12.6645,214.065)"
font-family=".AppleSystemUIFont" font-size="13" font-weight="400" font-style="normal" 
>
</g>

<g fill="none" stroke="#000000" stroke-opacity="1" stroke-width="1" stroke-linecap="square" stroke-linejoin="bevel" transform="matrix(1.00313,0,0,1.00313,12.6645,214.065)"
font-family=".AppleSystemUIFont" font-size="13" font-weight="400" font-style="normal" 
>
</g>

<g fill="none" stroke="#000000" stroke-opacity="1" stroke-width="1" stroke-linecap="square" stroke-linejoin="bevel" transform="matrix(1.00313,0,0,1.00313,12.6645,214.065)"
font-family=".AppleSystemUIFont" font-size="13" font-weight="400" font-style="normal" 
>
</g>

<g fill="none" stroke="#000000" stroke-opacity="1" stroke-width="1" stroke-linecap="square" stroke-linejoin="bevel" transform="matrix(1.00313,0,0,1.00313,12.6645,214.065)"
font-family="Sans" font-size="9" font-weight="400" font-style="normal" 
>
<text fill="#000000" fill-opacity="1" stroke="none" xml:space="preserve" x="0" y="0" font-family="Sans" font-size="9" font-weight="400" font-style="normal" 
 > 1.2</text>
</g>

<g fill="none" stroke="#000000" stroke-opacity="1" stroke-width="1" stroke-linecap="square" stroke-linejoin="bevel" transform="matrix(1.00313,0,0,1.00313,12.6645,214.065)"
font-family=".AppleSystemUIFont" font-size="13" font-weight="400" font-style="normal" 
>
</g>

<g fill="none" stroke="#000000" stroke-opacity="1" stroke-width="1" stroke-linecap="square" stroke-linejoin="bevel" transform="matrix(1.00313,0,0,1.00313,0,0)"
font-family=".AppleSystemUIFont" font-size="13" font-weight="400" font-style="normal" 
>
</g>

<g fill="none" stroke="#000000" stroke-opacity="1" stroke-width="1" stroke-linecap="round" stroke-linejoin="round" transform="matrix(1.00313,0,0,1.00313,0,0)"
font-family=".AppleSystemUIFont" font-size="13" font-weight="400" font-style="normal" 
>
<polyline fill="none" vector-effect="none" points="32.5,160.5 36.5,160.5 " />
<polyline fill="none" vector-effect="none" points="624.5,160.5 620.5,160.5 " />
</g>

<g fill="none" stroke="#000000" stroke-opacity="1" stroke-width="1" stroke-linecap="square" stroke-linejoin="bevel" transform="matrix(1.00313,0,0,1.00313,0,0)"
font-family=".AppleSystemUIFont" font-size="13" font-weight="400" font-style="normal" 
>
</g>

<g fill="none" stroke="#000000" stroke-opacity="1" stroke-width="1" stroke-linecap="square" stroke-linejoin="bevel" transform="matrix(1.00313,0,0,1.00313,12.5547,163.909)"
font-family=".AppleSystemUIFont" font-size="13" font-weight="400" font-style="normal" 
>
</g>

<g fill="none" stroke="#000000" stroke-opacity="1" stroke-width="1" stroke-linecap="square" stroke-linejoin="bevel" transform="matrix(1.00313,0,0,1.00313,12.5547,163.909)"
font-family=".AppleSystemUIFont" font-size="13" font-weight="400" font-style="normal" 
>
</g>

<g fill="none" stroke="#000000" stroke-opacity="1" stroke-width="1" stroke-linecap="square" stroke-linejoin="bevel" transform="matrix(1.00313,0,0,1.00313,12.5547,163.909)"
font-family=".AppleSystemUIFont" font-size="13" font-weight="400" font-style="normal" 
>
</g>

<g fill="none" stroke="#000000" stroke-opacity="1" stroke-width="1" stroke-linecap="square" stroke-linejoin="bevel" transform="matrix(1.00313,0,0,1.00313,12.5547,163.909)"
font-family=".AppleSystemUIFont" font-size="13" font-weight="400" font-style="normal" 
>
</g>

<g fill="none" stroke="#000000" stroke-opacity="1" stroke-width="1" stroke-linecap="square" stroke-linejoin="bevel" transform="matrix(1.00313,0,0,1.00313,12.5547,163.909)"
font-family=".AppleSystemUIFont" font-size="13" font-weight="400" font-style="normal" 
>
</g>

<g fill="none" stroke="#000000" stroke-opacity="1" stroke-width="1" stroke-linecap="square" stroke-linejoin="bevel" transform="matrix(1.00313,0,0,1.00313,12.5547,163.909)"
font-family="Sans" font-size="9" font-weight="400" font-style="normal" 
>
<text fill="#000000" fill-opacity="1" stroke="none" xml:space="preserve" x="0" y="0" font-family="Sans" font-size="9" font-weight="400" font-style="normal" 
 > 1.4</text>
</g>

<g fill="none" stroke="#000000" stroke-opacity="1" stroke-width="1" stroke-linecap="square" stroke-linejoin="bevel" transform="matrix(1.00313,0,0,1.00313,12.5547,163.909)"
font-family=".AppleSystemUIFont" font-size="13" font-weight="400" font-style="normal" 
>
</g>

<g fill="none" stroke="#000000" stroke-opacity="1" stroke-width="1" stroke-linecap="square" stroke-linejoin="bevel" transform="matrix(1.00313,0,0,1.00313,0,0)"
font-family=".AppleSystemUIFont" font-size="13" font-weight="400" font-style="normal" 
>
</g>

<g fill="none" stroke="#000000" stroke-opacity="1" stroke-width="1" stroke-linecap="round" stroke-linejoin="round" transform="matrix(1.00313,0,0,1.00313,0,0)"
font-family=".AppleSystemUIFont" font-size="13" font-weight="400" font-style="normal" 
>
<polyline fill="none" vector-effect="none" points="32.5,110.5 36.5,110.5 " />
<polyline fill="none" vector-effect="none" points="624.5,110.5 620.5,110.5 " />
</g>

<g fill="none" stroke="#000000" stroke-opacity="1" stroke-width="1" stroke-linecap="square" stroke-linejoin="bevel" transform="matrix(1.00313,0,0,1.00313,0,0)"
font-family=".AppleSystemUIFont" font-size="13" font-weight="400" font-style="normal" 
>
</g>

<g fill="none" stroke="#000000" stroke-opacity="1" stroke-width="1" stroke-linecap="square" stroke-linejoin="bevel" transform="matrix(1.00313,0,0,1.00313,12.5861,113.753)"
font-family=".AppleSystemUIFont" font-size="13" font-weight="400" font-style="normal" 
>
</g>

<g fill="none" stroke="#000000" stroke-opacity="1" stroke-width="1" stroke-linecap="square" stroke-linejoin="bevel" transform="matrix(1.00313,0,0,1.00313,12.5861,113.753)"
font-family=".AppleSystemUIFont" font-size="13" font-weight="400" font-style="normal" 
>
</g>

<g fill="none" stroke="#000000" stroke-opacity="1" stroke-width="1" stroke-linecap="square" stroke-linejoin="bevel" transform="matrix(1.00313,0,0,1.00313,12.5861,113.753)"
font-family=".AppleSystemUIFont" font-size="13" font-weight="400" font-style="normal" 
>
</g>

<g fill="none" stroke="#000000" stroke-opacity="1" stroke-width="1" stroke-linecap="square" stroke-linejoin="bevel" transform="matrix(1.00313,0,0,1.00313,12.5861,113.753)"
font-family=".AppleSystemUIFont" font-size="13" font-weight="400" font-style="normal" 
>
</g>

<g fill="none" stroke="#000000" stroke-opacity="1" stroke-width="1" stroke-linecap="square" stroke-linejoin="bevel" transform="matrix(1.00313,0,0,1.00313,12.5861,113.753)"
font-family=".AppleSystemUIFont" font-size="13" font-weight="400" font-style="normal" 
>
</g>

<g fill="none" stroke="#000000" stroke-opacity="1" stroke-width="1" stroke-linecap="square" stroke-linejoin="bevel" transform="matrix(1.00313,0,0,1.00313,12.5861,113.753)"
font-family="Sans" font-size="9" font-weight="400" font-style="normal" 
>
<text fill="#000000" fill-opacity="1" stroke="none" xml:space="preserve" x="0" y="0" font-family="Sans" font-size="9" font-weight="400" font-style="normal" 
 > 1.6</text>
</g>

<g fill="none" stroke="#000000" stroke-opacity="1" stroke-width="1" stroke-linecap="square" stroke-linejoin="bevel" transform="matrix(1.00313,0,0,1.00313,12.5861,113.753)"
font-family=".AppleSystemUIFont" font-size="13" font-weight="400" font-style="normal" 
>
</g>

<g fill="none" stroke="#000000" stroke-opacity="1" stroke-width="1" stroke-linecap="square" stroke-linejoin="bevel" transform="matrix(1.00313,0,0,1.00313,0,0)"
font-family=".AppleSystemUIFont" font-size="13" font-weight="400" font-style="normal" 
>
</g>

<g fill="none" stroke="#000000" stroke-opacity="1" stroke-width="1" stroke-linecap="round" stroke-linejoin="round" transform="matrix(1.00313,0,0,1.00313,0,0)"
font-family=".AppleSystemUIFont" font-size="13" font-weight="400" font-style="normal" 
>
<polyline fill="none" vector-effect="none" points="32.5,60.5 36.5,60.5 " />
<polyline fill="none" vector-effect="none" points="624.5,60.5 620.5,60.5 " />
</g>

<g fill="none" stroke="#000000" stroke-opacity="1" stroke-width="1" stroke-linecap="square" stroke-linejoin="bevel" transform="matrix(1.00313,0,0,1.00313,0,0)"
font-family=".AppleSystemUIFont" font-size="13" font-weight="400" font-style="normal" 
>
</g>

<g fill="none" stroke="#000000" stroke-opacity="1" stroke-width="1" stroke-linecap="square" stroke-linejoin="bevel" transform="matrix(1.00313,0,0,1.00313,11.6613,64.5997)"
font-family=".AppleSystemUIFont" font-size="13" font-weight="400" font-style="normal" 
>
</g>

<g fill="none" stroke="#000000" stroke-opacity="1" stroke-width="1" stroke-linecap="square" stroke-linejoin="bevel" transform="matrix(1.00313,0,0,1.00313,11.6613,64.5997)"
font-family=".AppleSystemUIFont" font-size="13" font-weight="400" font-style="normal" 
>
</g>

<g fill="none" stroke="#000000" stroke-opacity="1" stroke-width="1" stroke-linecap="square" stroke-linejoin="bevel" transform="matrix(1.00313,0,0,1.00313,11.6613,64.5997)"
font-family=".AppleSystemUIFont" font-size="13" font-weight="400" font-style="normal" 
>
</g>

<g fill="none" stroke="#000000" stroke-opacity="1" stroke-width="1" stroke-linecap="square" stroke-linejoin="bevel" transform="matrix(1.00313,0,0,1.00313,11.6613,64.5997)"
font-family=".AppleSystemUIFont" font-size="13" font-weight="400" font-style="normal" 
>
</g>

<g fill="none" stroke="#000000" stroke-opacity="1" stroke-width="1" stroke-linecap="square" stroke-linejoin="bevel" transform="matrix(1.00313,0,0,1.00313,11.6613,64.5997)"
font-family=".AppleSystemUIFont" font-size="13" font-weight="400" font-style="normal" 
>
</g>

<g fill="none" stroke="#000000" stroke-opacity="1" stroke-width="1" stroke-linecap="square" stroke-linejoin="bevel" transform="matrix(1.00313,0,0,1.00313,11.6613,64.5997)"
font-family="Sans" font-size="9" font-weight="400" font-style="normal" 
>
<text fill="#000000" fill-opacity="1" stroke="none" xml:space="preserve" x="0" y="0" font-family="Sans" font-size="9" font-weight="400" font-style="normal" 
 > 1.8</text>
</g>

<g fill="none" stroke="#000000" stroke-opacity="1" stroke-width="1" stroke-linecap="square" stroke-linejoin="bevel" transform="matrix(1.00313,0,0,1.00313,11.6613,64.5997)"
font-family=".AppleSystemUIFont" font-size="13" font-weight="400" font-style="normal" 
>
</g>

<g fill="none" stroke="#000000" stroke-opacity="1" stroke-width="1" stroke-linecap="square" stroke-linejoin="bevel" transform="matrix(1.00313,0,0,1.00313,0,0)"
font-family=".AppleSystemUIFont" font-size="13" font-weight="400" font-style="normal" 
>
</g>

<g fill="none" stroke="#000000" stroke-opacity="1" stroke-width="1" stroke-linecap="round" stroke-linejoin="round" transform="matrix(1.00313,0,0,1.00313,0,0)"
font-family=".AppleSystemUIFont" font-size="13" font-weight="400" font-style="normal" 
>
<polyline fill="none" vector-effect="none" points="32.5,11.5 36.5,11.5 " />
<polyline fill="none" vector-effect="none" points="624.5,11.5 620.5,11.5 " />
</g>

<g fill="none" stroke="#000000" stroke-opacity="1" stroke-width="1" stroke-linecap="square" stroke-linejoin="bevel" transform="matrix(1.00313,0,0,1.00313,0,0)"
font-family=".AppleSystemUIFont" font-size="13" font-weight="400" font-style="normal" 
>
</g>

<g fill="none" stroke="#000000" stroke-opacity="1" stroke-width="1" stroke-linecap="square" stroke-linejoin="bevel" transform="matrix(1.00313,0,0,1.00313,20.5797,14.4434)"
font-family=".AppleSystemUIFont" font-size="13" font-weight="400" font-style="normal" 
>
</g>

<g fill="none" stroke="#000000" stroke-opacity="1" stroke-width="1" stroke-linecap="square" stroke-linejoin="bevel" transform="matrix(1.00313,0,0,1.00313,20.5797,14.4434)"
font-family=".AppleSystemUIFont" font-size="13" font-weight="400" font-style="normal" 
>
</g>

<g fill="none" stroke="#000000" stroke-opacity="1" stroke-width="1" stroke-linecap="square" stroke-linejoin="bevel" transform="matrix(1.00313,0,0,1.00313,20.5797,14.4434)"
font-family=".AppleSystemUIFont" font-size="13" font-weight="400" font-style="normal" 
>
</g>

<g fill="none" stroke="#000000" stroke-opacity="1" stroke-width="1" stroke-linecap="square" stroke-linejoin="bevel" transform="matrix(1.00313,0,0,1.00313,20.5797,14.4434)"
font-family=".AppleSystemUIFont" font-size="13" font-weight="400" font-style="normal" 
>
</g>

<g fill="none" stroke="#000000" stroke-opacity="1" stroke-width="1" stroke-linecap="square" stroke-linejoin="bevel" transform="matrix(1.00313,0,0,1.00313,20.5797,14.4434)"
font-family=".AppleSystemUIFont" font-size="13" font-weight="400" font-style="normal" 
>
</g>

<g fill="none" stroke="#000000" stroke-opacity="1" stroke-width="1" stroke-linecap="square" stroke-linejoin="bevel" transform="matrix(1.00313,0,0,1.00313,20.5797,14.4434)"
font-family="Sans" font-size="9" font-weight="400" font-style="normal" 
>
<text fill="#000000" fill-opacity="1" stroke="none" xml:space="preserve" x="0" y="0" font-family="Sans" font-size="9" font-weight="400" font-style="normal" 
 > 2</text>
</g>

<g fill="none" stroke="#000000" stroke-opacity="1" stroke-width="1" stroke-linecap="square" stroke-linejoin="bevel" transform="matrix(1.00313,0,0,1.00313,20.5797,14.4434)"
font-family=".AppleSystemUIFont" font-size="13" font-weight="400" font-style="normal" 
>
</g>

<g fill="none" stroke="#000000" stroke-opacity="1" stroke-width="1" stroke-linecap="square" stroke-linejoin="bevel" transform="matrix(1.00313,0,0,1.00313,0,0)"
font-family=".AppleSystemUIFont" font-size="13" font-weight="400" font-style="normal" 
>
</g>

<g fill="none" stroke="#000000" stroke-opacity="1" stroke-width="1" stroke-linecap="round" stroke-linejoin="round" transform="matrix(1.00313,0,0,1.00313,0,0)"
font-family=".AppleSystemUIFont" font-size="13" font-weight="400" font-style="normal" 
>
<polyline fill="none" vector-effect="none" points="32.5,457.5 32.5,453.5 " />
<polyline fill="none" vector-effect="none" points="32.5,11.5 32.5,15.5 " />
</g>

<g fill="none" stroke="#000000" stroke-opacity="1" stroke-width="1" stroke-linecap="square" stroke-linejoin="bevel" transform="matrix(1.00313,0,0,1.00313,0,0)"
font-family=".AppleSystemUIFont" font-size="13" font-weight="400" font-style="normal" 
>
</g>

<g fill="none" stroke="#000000" stroke-opacity="1" stroke-width="1" stroke-linecap="square" stroke-linejoin="bevel" transform="matrix(1.00313,0,0,1.00313,29.2239,473.875)"
font-family=".AppleSystemUIFont" font-size="13" font-weight="400" font-style="normal" 
>
</g>

<g fill="none" stroke="#000000" stroke-opacity="1" stroke-width="1" stroke-linecap="square" stroke-linejoin="bevel" transform="matrix(1.00313,0,0,1.00313,29.2239,473.875)"
font-family=".AppleSystemUIFont" font-size="13" font-weight="400" font-style="normal" 
>
</g>

<g fill="none" stroke="#000000" stroke-opacity="1" stroke-width="1" stroke-linecap="square" stroke-linejoin="bevel" transform="matrix(1.00313,0,0,1.00313,29.2239,473.875)"
font-family=".AppleSystemUIFont" font-size="13" font-weight="400" font-style="normal" 
>
</g>

<g fill="none" stroke="#000000" stroke-opacity="1" stroke-width="1" stroke-linecap="square" stroke-linejoin="bevel" transform="matrix(1.00313,0,0,1.00313,29.2239,473.875)"
font-family=".AppleSystemUIFont" font-size="13" font-weight="400" font-style="normal" 
>
</g>

<g fill="none" stroke="#000000" stroke-opacity="1" stroke-width="1" stroke-linecap="square" stroke-linejoin="bevel" transform="matrix(1.00313,0,0,1.00313,29.2239,473.875)"
font-family=".AppleSystemUIFont" font-size="13" font-weight="400" font-style="normal" 
>
</g>

<g fill="none" stroke="#000000" stroke-opacity="1" stroke-width="1" stroke-linecap="square" stroke-linejoin="bevel" transform="matrix(1.00313,0,0,1.00313,29.2239,473.875)"
font-family="Sans" font-size="9" font-weight="400" font-style="normal" 
>
<text fill="#000000" fill-opacity="1" stroke="none" xml:space="preserve" x="0" y="0" font-family="Sans" font-size="9" font-weight="400" font-style="normal" 
 > 0</text>
</g>

<g fill="none" stroke="#000000" stroke-opacity="1" stroke-width="1" stroke-linecap="square" stroke-linejoin="bevel" transform="matrix(1.00313,0,0,1.00313,29.2239,473.875)"
font-family=".AppleSystemUIFont" font-size="13" font-weight="400" font-style="normal" 
>
</g>

<g fill="none" stroke="#000000" stroke-opacity="1" stroke-width="1" stroke-linecap="square" stroke-linejoin="bevel" transform="matrix(1.00313,0,0,1.00313,0,0)"
font-family=".AppleSystemUIFont" font-size="13" font-weight="400" font-style="normal" 
>
</g>

<g fill="none" stroke="#000000" stroke-opacity="1" stroke-width="1" stroke-linecap="round" stroke-linejoin="round" transform="matrix(1.00313,0,0,1.00313,0,0)"
font-family=".AppleSystemUIFont" font-size="13" font-weight="400" font-style="normal" 
>
<polyline fill="none" vector-effect="none" points="131.5,457.5 131.5,453.5 " />
<polyline fill="none" vector-effect="none" points="131.5,11.5 131.5,15.5 " />
</g>

<g fill="none" stroke="#000000" stroke-opacity="1" stroke-width="1" stroke-linecap="square" stroke-linejoin="bevel" transform="matrix(1.00313,0,0,1.00313,0,0)"
font-family=".AppleSystemUIFont" font-size="13" font-weight="400" font-style="normal" 
>
</g>

<g fill="none" stroke="#000000" stroke-opacity="1" stroke-width="1" stroke-linecap="square" stroke-linejoin="bevel" transform="matrix(1.00313,0,0,1.00313,121.652,473.875)"
font-family=".AppleSystemUIFont" font-size="13" font-weight="400" font-style="normal" 
>
</g>

<g fill="none" stroke="#000000" stroke-opacity="1" stroke-width="1" stroke-linecap="square" stroke-linejoin="bevel" transform="matrix(1.00313,0,0,1.00313,121.652,473.875)"
font-family=".AppleSystemUIFont" font-size="13" font-weight="400" font-style="normal" 
>
</g>

<g fill="none" stroke="#000000" stroke-opacity="1" stroke-width="1" stroke-linecap="square" stroke-linejoin="bevel" transform="matrix(1.00313,0,0,1.00313,121.652,473.875)"
font-family=".AppleSystemUIFont" font-size="13" font-weight="400" font-style="normal" 
>
</g>

<g fill="none" stroke="#000000" stroke-opacity="1" stroke-width="1" stroke-linecap="square" stroke-linejoin="bevel" transform="matrix(1.00313,0,0,1.00313,121.652,473.875)"
font-family=".AppleSystemUIFont" font-size="13" font-weight="400" font-style="normal" 
>
</g>

<g fill="none" stroke="#000000" stroke-opacity="1" stroke-width="1" stroke-linecap="square" stroke-linejoin="bevel" transform="matrix(1.00313,0,0,1.00313,121.652,473.875)"
font-family=".AppleSystemUIFont" font-size="13" font-weight="400" font-style="normal" 
>
</g>

<g fill="none" stroke="#000000" stroke-opacity="1" stroke-width="1" stroke-linecap="square" stroke-linejoin="bevel" transform="matrix(1.00313,0,0,1.00313,121.652,473.875)"
font-family="Sans" font-size="9" font-weight="400" font-style="normal" 
>
<text fill="#000000" fill-opacity="1" stroke="none" xml:space="preserve" x="0" y="0" font-family="Sans" font-size="9" font-weight="400" font-style="normal" 
 > 500</text>
</g>

<g fill="none" stroke="#000000" stroke-opacity="1" stroke-width="1" stroke-linecap="square" stroke-linejoin="bevel" transform="matrix(1.00313,0,0,1.00313,121.652,473.875)"
font-family=".AppleSystemUIFont" font-size="13" font-weight="400" font-style="normal" 
>
</g>

<g fill="none" stroke="#000000" stroke-opacity="1" stroke-width="1" stroke-linecap="square" stroke-linejoin="bevel" transform="matrix(1.00313,0,0,1.00313,0,0)"
font-family=".AppleSystemUIFont" font-size="13" font-weight="400" font-style="normal" 
>
</g>

<g fill="none" stroke="#000000" stroke-opacity="1" stroke-width="1" stroke-linecap="round" stroke-linejoin="round" transform="matrix(1.00313,0,0,1.00313,0,0)"
font-family=".AppleSystemUIFont" font-size="13" font-weight="400" font-style="normal" 
>
<polyline fill="none" vector-effect="none" points="230.5,457.5 230.5,453.5 " />
<polyline fill="none" vector-effect="none" points="230.5,11.5 230.5,15.5 " />
</g>

<g fill="none" stroke="#000000" stroke-opacity="1" stroke-width="1" stroke-linecap="square" stroke-linejoin="bevel" transform="matrix(1.00313,0,0,1.00313,0,0)"
font-family=".AppleSystemUIFont" font-size="13" font-weight="400" font-style="normal" 
>
</g>

<g fill="none" stroke="#000000" stroke-opacity="1" stroke-width="1" stroke-linecap="square" stroke-linejoin="bevel" transform="matrix(1.00313,0,0,1.00313,218.854,473.875)"
font-family=".AppleSystemUIFont" font-size="13" font-weight="400" font-style="normal" 
>
</g>

<g fill="none" stroke="#000000" stroke-opacity="1" stroke-width="1" stroke-linecap="square" stroke-linejoin="bevel" transform="matrix(1.00313,0,0,1.00313,218.854,473.875)"
font-family=".AppleSystemUIFont" font-size="13" font-weight="400" font-style="normal" 
>
</g>

<g fill="none" stroke="#000000" stroke-opacity="1" stroke-width="1" stroke-linecap="square" stroke-linejoin="bevel" transform="matrix(1.00313,0,0,1.00313,218.854,473.875)"
font-family=".AppleSystemUIFont" font-size="13" font-weight="400" font-style="normal" 
>
</g>

<g fill="none" stroke="#000000" stroke-opacity="1" stroke-width="1" stroke-linecap="square" stroke-linejoin="bevel" transform="matrix(1.00313,0,0,1.00313,218.854,473.875)"
font-family=".AppleSystemUIFont" font-size="13" font-weight="400" font-style="normal" 
>
</g>

<g fill="none" stroke="#000000" stroke-opacity="1" stroke-width="1" stroke-linecap="square" stroke-linejoin="bevel" transform="matrix(1.00313,0,0,1.00313,218.854,473.875)"
font-family=".AppleSystemUIFont" font-size="13" font-weight="400" font-style="normal" 
>
</g>

<g fill="none" stroke="#000000" stroke-opacity="1" stroke-width="1" stroke-linecap="square" stroke-linejoin="bevel" transform="matrix(1.00313,0,0,1.00313,218.854,473.875)"
font-family="Sans" font-size="9" font-weight="400" font-style="normal" 
>
<text fill="#000000" fill-opacity="1" stroke="none" xml:space="preserve" x="0" y="0" font-family="Sans" font-size="9" font-weight="400" font-style="normal" 
 > 1000</text>
</g>

<g fill="none" stroke="#000000" stroke-opacity="1" stroke-width="1" stroke-linecap="square" stroke-linejoin="bevel" transform="matrix(1.00313,0,0,1.00313,218.854,473.875)"
font-family=".AppleSystemUIFont" font-size="13" font-weight="400" font-style="normal" 
>
</g>

<g fill="none" stroke="#000000" stroke-opacity="1" stroke-width="1" stroke-linecap="square" stroke-linejoin="bevel" transform="matrix(1.00313,0,0,1.00313,0,0)"
font-family=".AppleSystemUIFont" font-size="13" font-weight="400" font-style="normal" 
>
</g>

<g fill="none" stroke="#000000" stroke-opacity="1" stroke-width="1" stroke-linecap="round" stroke-linejoin="round" transform="matrix(1.00313,0,0,1.00313,0,0)"
font-family=".AppleSystemUIFont" font-size="13" font-weight="400" font-style="normal" 
>
<polyline fill="none" vector-effect="none" points="328.5,457.5 328.5,453.5 " />
<polyline fill="none" vector-effect="none" points="328.5,11.5 328.5,15.5 " />
</g>

<g fill="none" stroke="#000000" stroke-opacity="1" stroke-width="1" stroke-linecap="square" stroke-linejoin="bevel" transform="matrix(1.00313,0,0,1.00313,0,0)"
font-family=".AppleSystemUIFont" font-size="13" font-weight="400" font-style="normal" 
>
</g>

<g fill="none" stroke="#000000" stroke-opacity="1" stroke-width="1" stroke-linecap="square" stroke-linejoin="bevel" transform="matrix(1.00313,0,0,1.00313,318.163,473.875)"
font-family=".AppleSystemUIFont" font-size="13" font-weight="400" font-style="normal" 
>
</g>

<g fill="none" stroke="#000000" stroke-opacity="1" stroke-width="1" stroke-linecap="square" stroke-linejoin="bevel" transform="matrix(1.00313,0,0,1.00313,318.163,473.875)"
font-family=".AppleSystemUIFont" font-size="13" font-weight="400" font-style="normal" 
>
</g>

<g fill="none" stroke="#000000" stroke-opacity="1" stroke-width="1" stroke-linecap="square" stroke-linejoin="bevel" transform="matrix(1.00313,0,0,1.00313,318.163,473.875)"
font-family=".AppleSystemUIFont" font-size="13" font-weight="400" font-style="normal" 
>
</g>

<g fill="none" stroke="#000000" stroke-opacity="1" stroke-width="1" stroke-linecap="square" stroke-linejoin="bevel" transform="matrix(1.00313,0,0,1.00313,318.163,473.875)"
font-family=".AppleSystemUIFont" font-size="13" font-weight="400" font-style="normal" 
>
</g>

<g fill="none" stroke="#000000" stroke-opacity="1" stroke-width="1" stroke-linecap="square" stroke-linejoin="bevel" transform="matrix(1.00313,0,0,1.00313,318.163,473.875)"
font-family=".AppleSystemUIFont" font-size="13" font-weight="400" font-style="normal" 
>
</g>

<g fill="none" stroke="#000000" stroke-opacity="1" stroke-width="1" stroke-linecap="square" stroke-linejoin="bevel" transform="matrix(1.00313,0,0,1.00313,318.163,473.875)"
font-family="Sans" font-size="9" font-weight="400" font-style="normal" 
>
<text fill="#000000" fill-opacity="1" stroke="none" xml:space="preserve" x="0" y="0" font-family="Sans" font-size="9" font-weight="400" font-style="normal" 
 > 1500</text>
</g>

<g fill="none" stroke="#000000" stroke-opacity="1" stroke-width="1" stroke-linecap="square" stroke-linejoin="bevel" transform="matrix(1.00313,0,0,1.00313,318.163,473.875)"
font-family=".AppleSystemUIFont" font-size="13" font-weight="400" font-style="normal" 
>
</g>

<g fill="none" stroke="#000000" stroke-opacity="1" stroke-width="1" stroke-linecap="square" stroke-linejoin="bevel" transform="matrix(1.00313,0,0,1.00313,0,0)"
font-family=".AppleSystemUIFont" font-size="13" font-weight="400" font-style="normal" 
>
</g>

<g fill="none" stroke="#000000" stroke-opacity="1" stroke-width="1" stroke-linecap="round" stroke-linejoin="round" transform="matrix(1.00313,0,0,1.00313,0,0)"
font-family=".AppleSystemUIFont" font-size="13" font-weight="400" font-style="normal" 
>
<polyline fill="none" vector-effect="none" points="427.5,457.5 427.5,453.5 " />
<polyline fill="none" vector-effect="none" points="427.5,11.5 427.5,15.5 " />
</g>

<g fill="none" stroke="#000000" stroke-opacity="1" stroke-width="1" stroke-linecap="square" stroke-linejoin="bevel" transform="matrix(1.00313,0,0,1.00313,0,0)"
font-family=".AppleSystemUIFont" font-size="13" font-weight="400" font-style="normal" 
>
</g>

<g fill="none" stroke="#000000" stroke-opacity="1" stroke-width="1" stroke-linecap="square" stroke-linejoin="bevel" transform="matrix(1.00313,0,0,1.00313,415.748,473.875)"
font-family=".AppleSystemUIFont" font-size="13" font-weight="400" font-style="normal" 
>
</g>

<g fill="none" stroke="#000000" stroke-opacity="1" stroke-width="1" stroke-linecap="square" stroke-linejoin="bevel" transform="matrix(1.00313,0,0,1.00313,415.748,473.875)"
font-family=".AppleSystemUIFont" font-size="13" font-weight="400" font-style="normal" 
>
</g>

<g fill="none" stroke="#000000" stroke-opacity="1" stroke-width="1" stroke-linecap="square" stroke-linejoin="bevel" transform="matrix(1.00313,0,0,1.00313,415.748,473.875)"
font-family=".AppleSystemUIFont" font-size="13" font-weight="400" font-style="normal" 
>
</g>

<g fill="none" stroke="#000000" stroke-opacity="1" stroke-width="1" stroke-linecap="square" stroke-linejoin="bevel" transform="matrix(1.00313,0,0,1.00313,415.748,473.875)"
font-family=".AppleSystemUIFont" font-size="13" font-weight="400" font-style="normal" 
>
</g>

<g fill="none" stroke="#000000" stroke-opacity="1" stroke-width="1" stroke-linecap="square" stroke-linejoin="bevel" transform="matrix(1.00313,0,0,1.00313,415.748,473.875)"
font-family=".AppleSystemUIFont" font-size="13" font-weight="400" font-style="normal" 
>
</g>

<g fill="none" stroke="#000000" stroke-opacity="1" stroke-width="1" stroke-linecap="square" stroke-linejoin="bevel" transform="matrix(1.00313,0,0,1.00313,415.748,473.875)"
font-family="Sans" font-size="9" font-weight="400" font-style="normal" 
>
<text fill="#000000" fill-opacity="1" stroke="none" xml:space="preserve" x="0" y="0" font-family="Sans" font-size="9" font-weight="400" font-style="normal" 
 > 2000</text>
</g>

<g fill="none" stroke="#000000" stroke-opacity="1" stroke-width="1" stroke-linecap="square" stroke-linejoin="bevel" transform="matrix(1.00313,0,0,1.00313,415.748,473.875)"
font-family=".AppleSystemUIFont" font-size="13" font-weight="400" font-style="normal" 
>
</g>

<g fill="none" stroke="#000000" stroke-opacity="1" stroke-width="1" stroke-linecap="square" stroke-linejoin="bevel" transform="matrix(1.00313,0,0,1.00313,0,0)"
font-family=".AppleSystemUIFont" font-size="13" font-weight="400" font-style="normal" 
>
</g>

<g fill="none" stroke="#000000" stroke-opacity="1" stroke-width="1" stroke-linecap="round" stroke-linejoin="round" transform="matrix(1.00313,0,0,1.00313,0,0)"
font-family=".AppleSystemUIFont" font-size="13" font-weight="400" font-style="normal" 
>
<polyline fill="none" vector-effect="none" points="526.5,457.5 526.5,453.5 " />
<polyline fill="none" vector-effect="none" points="526.5,11.5 526.5,15.5 " />
</g>

<g fill="none" stroke="#000000" stroke-opacity="1" stroke-width="1" stroke-linecap="square" stroke-linejoin="bevel" transform="matrix(1.00313,0,0,1.00313,0,0)"
font-family=".AppleSystemUIFont" font-size="13" font-weight="400" font-style="normal" 
>
</g>

<g fill="none" stroke="#000000" stroke-opacity="1" stroke-width="1" stroke-linecap="square" stroke-linejoin="bevel" transform="matrix(1.00313,0,0,1.00313,515.293,473.875)"
font-family=".AppleSystemUIFont" font-size="13" font-weight="400" font-style="normal" 
>
</g>

<g fill="none" stroke="#000000" stroke-opacity="1" stroke-width="1" stroke-linecap="square" stroke-linejoin="bevel" transform="matrix(1.00313,0,0,1.00313,515.293,473.875)"
font-family=".AppleSystemUIFont" font-size="13" font-weight="400" font-style="normal" 
>
</g>

<g fill="none" stroke="#000000" stroke-opacity="1" stroke-width="1" stroke-linecap="square" stroke-linejoin="bevel" transform="matrix(1.00313,0,0,1.00313,515.293,473.875)"
font-family=".AppleSystemUIFont" font-size="13" font-weight="400" font-style="normal" 
>
</g>

<g fill="none" stroke="#000000" stroke-opacity="1" stroke-width="1" stroke-linecap="square" stroke-linejoin="bevel" transform="matrix(1.00313,0,0,1.00313,515.293,473.875)"
font-family=".AppleSystemUIFont" font-size="13" font-weight="400" font-style="normal" 
>
</g>

<g fill="none" stroke="#000000" stroke-opacity="1" stroke-width="1" stroke-linecap="square" stroke-linejoin="bevel" transform="matrix(1.00313,0,0,1.00313,515.293,473.875)"
font-family=".AppleSystemUIFont" font-size="13" font-weight="400" font-style="normal" 
>
</g>

<g fill="none" stroke="#000000" stroke-opacity="1" stroke-width="1" stroke-linecap="square" stroke-linejoin="bevel" transform="matrix(1.00313,0,0,1.00313,515.293,473.875)"
font-family="Sans" font-size="9" font-weight="400" font-style="normal" 
>
<text fill="#000000" fill-opacity="1" stroke="none" xml:space="preserve" x="0" y="0" font-family="Sans" font-size="9" font-weight="400" font-style="normal" 
 > 2500</text>
</g>

<g fill="none" stroke="#000000" stroke-opacity="1" stroke-width="1" stroke-linecap="square" stroke-linejoin="bevel" transform="matrix(1.00313,0,0,1.00313,515.293,473.875)"
font-family=".AppleSystemUIFont" font-size="13" font-weight="400" font-style="normal" 
>
</g>

<g fill="none" stroke="#000000" stroke-opacity="1" stroke-width="1" stroke-linecap="square" stroke-linejoin="bevel" transform="matrix(1.00313,0,0,1.00313,0,0)"
font-family=".AppleSystemUIFont" font-size="13" font-weight="400" font-style="normal" 
>
</g>

<g fill="none" stroke="#000000" stroke-opacity="1" stroke-width="1" stroke-linecap="round" stroke-linejoin="round" transform="matrix(1.00313,0,0,1.00313,0,0)"
font-family=".AppleSystemUIFont" font-size="13" font-weight="400" font-style="normal" 
>
<polyline fill="none" vector-effect="none" points="624.5,457.5 624.5,453.5 " />
<polyline fill="none" vector-effect="none" points="624.5,11.5 624.5,15.5 " />
</g>

<g fill="none" stroke="#000000" stroke-opacity="1" stroke-width="1" stroke-linecap="square" stroke-linejoin="bevel" transform="matrix(1.00313,0,0,1.00313,0,0)"
font-family=".AppleSystemUIFont" font-size="13" font-weight="400" font-style="normal" 
>
</g>

<g fill="none" stroke="#000000" stroke-opacity="1" stroke-width="1" stroke-linecap="square" stroke-linejoin="bevel" transform="matrix(1.00313,0,0,1.00313,614.234,473.875)"
font-family=".AppleSystemUIFont" font-size="13" font-weight="400" font-style="normal" 
>
</g>

<g fill="none" stroke="#000000" stroke-opacity="1" stroke-width="1" stroke-linecap="square" stroke-linejoin="bevel" transform="matrix(1.00313,0,0,1.00313,614.234,473.875)"
font-family=".AppleSystemUIFont" font-size="13" font-weight="400" font-style="normal" 
>
</g>

<g fill="none" stroke="#000000" stroke-opacity="1" stroke-width="1" stroke-linecap="square" stroke-linejoin="bevel" transform="matrix(1.00313,0,0,1.00313,614.234,473.875)"
font-family=".AppleSystemUIFont" font-size="13" font-weight="400" font-style="normal" 
>
</g>

<g fill="none" stroke="#000000" stroke-opacity="1" stroke-width="1" stroke-linecap="square" stroke-linejoin="bevel" transform="matrix(1.00313,0,0,1.00313,614.234,473.875)"
font-family=".AppleSystemUIFont" font-size="13" font-weight="400" font-style="normal" 
>
</g>

<g fill="none" stroke="#000000" stroke-opacity="1" stroke-width="1" stroke-linecap="square" stroke-linejoin="bevel" transform="matrix(1.00313,0,0,1.00313,614.234,473.875)"
font-family=".AppleSystemUIFont" font-size="13" font-weight="400" font-style="normal" 
>
</g>

<g fill="none" stroke="#000000" stroke-opacity="1" stroke-width="1" stroke-linecap="square" stroke-linejoin="bevel" transform="matrix(1.00313,0,0,1.00313,614.234,473.875)"
font-family="Sans" font-size="9" font-weight="400" font-style="normal" 
>
<text fill="#000000" fill-opacity="1" stroke="none" xml:space="preserve" x="0" y="0" font-family="Sans" font-size="9" font-weight="400" font-style="normal" 
 > 3000</text>
</g>

<g fill="none" stroke="#000000" stroke-opacity="1" stroke-width="1" stroke-linecap="square" stroke-linejoin="bevel" transform="matrix(1.00313,0,0,1.00313,614.234,473.875)"
font-family=".AppleSystemUIFont" font-size="13" font-weight="400" font-style="normal" 
>
</g>

<g fill="none" stroke="#000000" stroke-opacity="1" stroke-width="1" stroke-linecap="square" stroke-linejoin="bevel" transform="matrix(1.00313,0,0,1.00313,0,0)"
font-family=".AppleSystemUIFont" font-size="13" font-weight="400" font-style="normal" 
>
</g>

<g fill="none" stroke="#000000" stroke-opacity="1" stroke-width="1" stroke-linecap="round" stroke-linejoin="round" transform="matrix(1.00313,0,0,1.00313,0,0)"
font-family=".AppleSystemUIFont" font-size="13" font-weight="400" font-style="normal" 
>
<polyline fill="none" vector-effect="none" points="32.5,11.5 32.5,457.5 624.5,457.5 624.5,11.5 32.5,11.5 " />
</g>

<g fill="none" stroke="#000000" stroke-opacity="1" stroke-width="1" stroke-linecap="square" stroke-linejoin="bevel" transform="matrix(1.00313,0,0,1.00313,0,0)"
font-family=".AppleSystemUIFont" font-size="13" font-weight="400" font-style="normal" 
>
</g>

<g fill="none" stroke="#000000" stroke-opacity="1" stroke-width="1" stroke-linecap="square" stroke-linejoin="bevel" transform="matrix(1.00313,0,0,1.00313,471.249,11.5359)"
font-family=".AppleSystemUIFont" font-size="13" font-weight="400" font-style="normal" 
>
</g>

<g fill="none" stroke="#000000" stroke-opacity="1" stroke-width="1" stroke-linecap="square" stroke-linejoin="bevel" transform="matrix(1.00313,0,0,1.00313,471.249,11.5359)"
font-family=".AppleSystemUIFont" font-size="13" font-weight="400" font-style="normal" 
>
</g>

<g fill="none" stroke="#000000" stroke-opacity="1" stroke-width="1" stroke-linecap="square" stroke-linejoin="bevel" transform="matrix(1.00313,0,0,1.00313,471.249,11.5359)"
font-family=".AppleSystemUIFont" font-size="13" font-weight="400" font-style="normal" 
>
</g>

<g fill="none" stroke="#000000" stroke-opacity="1" stroke-width="1" stroke-linecap="square" stroke-linejoin="bevel" transform="matrix(1.00313,0,0,1.00313,471.249,11.5359)"
font-family=".AppleSystemUIFont" font-size="13" font-weight="400" font-style="normal" 
>
<text fill="#000000" fill-opacity="1" stroke="none" xml:space="preserve" x="4" y="12.6875" font-family="Sans" font-size="9" font-weight="400" font-style="normal" 
 >'output_temp.dat' us 0:1</text>
</g>

<g fill="none" stroke="#000000" stroke-opacity="1" stroke-width="1" stroke-linecap="square" stroke-linejoin="bevel" transform="matrix(1.00313,0,0,1.00313,471.249,11.5359)"
font-family=".AppleSystemUIFont" font-size="13" font-weight="400" font-style="normal" 
>
</g>

<g fill="none" stroke="#000000" stroke-opacity="1" stroke-width="1" stroke-linecap="square" stroke-linejoin="bevel" transform="matrix(1,0,0,1,0,0)"
font-family=".AppleSystemUIFont" font-size="13" font-weight="400" font-style="normal" 
>
</g>

<g fill="none" stroke="#000000" stroke-opacity="1" stroke-width="1" stroke-linecap="square" stroke-linejoin="bevel" transform="matrix(1.00313,0,0,1.00313,471.249,11.5359)"
font-family=".AppleSystemUIFont" font-size="13" font-weight="400" font-style="normal" 
>
</g>

<g fill="none" stroke="#000000" stroke-opacity="1" stroke-width="1" stroke-linecap="square" stroke-linejoin="bevel" transform="matrix(1.00313,0,0,1.00313,471.249,11.5359)"
font-family=".AppleSystemUIFont" font-size="13" font-weight="400" font-style="normal" 
>
</g>

<g fill="none" stroke="#000000" stroke-opacity="1" stroke-width="1" stroke-linecap="square" stroke-linejoin="bevel" transform="matrix(1.00313,0,0,1.00313,471.249,11.5359)"
font-family=".AppleSystemUIFont" font-size="13" font-weight="400" font-style="normal" 
>
</g>

<g fill="none" stroke="#000000" stroke-opacity="1" stroke-width="1" stroke-linecap="square" stroke-linejoin="bevel" transform="matrix(1.00313,0,0,1.00313,0,0)"
font-family=".AppleSystemUIFont" font-size="13" font-weight="400" font-style="normal" 
>
</g>

<g fill="none" stroke="#9400d3" stroke-opacity="1" stroke-width="1" stroke-linecap="round" stroke-linejoin="round" transform="matrix(1.00313,0,0,1.00313,0,0)"
font-family=".AppleSystemUIFont" font-size="13" font-weight="400" font-style="normal" 
>
<path vector-effect="none" fill-rule="evenodd" d="M590.5,20.5 L614.5,20.5"/>
</g>

<g fill="none" stroke="#000000" stroke-opacity="1" stroke-width="1" stroke-linecap="square" stroke-linejoin="bevel" transform="matrix(1.00313,0,0,1.00313,0,0)"
font-family=".AppleSystemUIFont" font-size="13" font-weight="400" font-style="normal" 
>
</g>

<g fill="none" stroke="#000000" stroke-opacity="1" stroke-width="1" stroke-linecap="square" stroke-linejoin="bevel" transform="matrix(1.00313,0,0,1.00313,0,0)"
font-family=".AppleSystemUIFont" font-size="13" font-weight="400" font-style="normal" 
>
</g>

<g fill="none" stroke="#000000" stroke-opacity="1" stroke-width="1" stroke-linecap="square" stroke-linejoin="bevel" transform="matrix(1.00313,0,0,1.00313,0,0)"
font-family=".AppleSystemUIFont" font-size="13" font-weight="400" font-style="normal" 
>
</g>

<g fill="none" stroke="#000000" stroke-opacity="1" stroke-width="1" stroke-linecap="square" stroke-linejoin="bevel" transform="matrix(1.00313,0,0,1.00313,0,0)"
font-family=".AppleSystemUIFont" font-size="13" font-weight="400" font-style="normal" 
>
</g>

<g fill="none" stroke="#9400d3" stroke-opacity="1" stroke-width="1" stroke-linecap="round" stroke-linejoin="round" transform="matrix(1.00313,0,0,1.00313,0,0)"
font-family=".AppleSystemUIFont" font-size="13" font-weight="400" font-style="normal" 
>
<polyline fill="none" vector-effect="none" points="32.5,162.8 32.5,162.8 32.7,172.3 32.9,188.5 33.1,211 33.3,239.2 33.5,271.9 33.7,307.1 33.9,341.9 34.1,373 34.3,397.2 34.5,412.5 34.7,418.4 34.9,416 35.1,407.6 35.3,395.8 35.5,382.9 35.7,370.7 35.9,360.2 36.1,352.1 36.3,346.5 36.4,343.1 36.6,341.5 36.8,341.4 37,342.1 37.2,343.2 37.4,344.4 37.6,345.2 37.8,345.4 38,345 38.2,343.9 38.4,342.1 38.6,339.9 38.8,337.5 39,335.1 39.2,332.9 39.4,331 39.6,329.4 39.8,328.1 40,327 40.2,325.8 40.4,324.6 40.6,323.4 40.8,322.6 41,322.3 41.2,322.5 41.4,323.3 41.6,324.5 41.8,325.8 42,326.9 42.2,327.6 42.4,327.8 42.6,327.2 42.8,326 43,324.1 43.2,321.7 43.4,318.9 43.6,315.9 43.8,313 44,310.3 44.2,308.1 44.3,306.6 44.5,306 44.7,306.3 44.9,307.7 45.1,310.2 45.3,313.8 45.5,318.2 45.7,323 45.9,327.9 46.1,332.8 46.3,337.3 46.5,341.3 46.7,344.3 46.9,345.8 47.1,345.2 47.3,342.4 47.5,337.7 47.7,332.3 47.9,327.2 48.1,323.2 48.3,320.7 48.5,319.7 48.7,320 48.9,321.2 49.1,322.8 49.3,324.4 49.5,325.7 49.7,326.9 49.9,327.9 50.1,328.9 50.3,330 50.5,331.1 50.7,332.2 50.9,333.2 51.1,334.3 51.3,335.6 51.5,336.9 51.7,338.4 51.9,339.7 52,340.7 52.2,341.2 52.4,341.2 52.6,340.7 52.8,339.6 53,338.1 53.2,336.2 53.4,334 53.6,331.6 53.8,329.2 54,326.9 54.2,324.7 54.4,323 54.6,321.7 54.8,320.9 55,320.6 55.2,320.7 55.4,321.1 55.6,321.6 55.8,322.3 56,323 56.2,323.5 56.4,323.7 56.6,323.6 56.8,323.1 57,322.2 57.2,321.3 57.4,320.5 57.6,320.2 57.8,320.5 58,321.8 58.2,323.8 58.4,326.4 58.6,329.2 58.8,331.5 59,332.8 59.2,333 59.4,332 59.6,330.3 59.8,328.5 59.9,327.1 60.1,326.5 60.3,326.8 60.5,327.6 60.7,328.7 60.9,329.6 61.1,330.3 61.3,330.6 61.5,330.8 61.7,331 61.9,331.6 62.1,332.8 62.3,334.5 62.5,336.8 62.7,339.3 62.9,341.7 63.1,343.5 63.3,344.4 63.5,344 63.7,342.2 63.9,339 64.1,334.6 64.3,329.5 64.5,324.1 64.7,319 64.9,314.4 65.1,310.8 65.3,308.2 65.5,306.9 65.7,306.7 65.9,307.6 66.1,309.3 66.3,311.7 66.5,314.4 66.7,317.4 66.9,320.5 67.1,323.5 67.3,326.3 67.5,328.8 67.6,331.1 67.8,333.2 68,334.9 68.2,335.9 68.4,336 68.6,335.2 68.8,333.7 69,331.9 69.2,330.2 69.4,329.1 69.6,328.9 69.8,329.6 70,331 70.2,333.1 70.4,335.3 70.6,337.3 70.8,338.9 71,339.8 71.2,340.1 71.4,339.7 71.6,338.7 71.8,337.2 72,335.2 72.2,332.6 72.4,329.3 72.6,325.3 72.8,320.9 73,316.9 73.2,313.6 73.4,311.7 73.6,311.1 73.8,312.1 74,314.5 74.2,318 74.4,322.4 74.6,327.2 74.8,332 75,336.3 75.2,339.5 75.4,341.4 75.5,341.9 75.7,341.2 75.9,339.5 76.1,337 76.3,333.8 76.5,330.2 76.7,326.3 76.9,322.4 77.1,318.9 77.3,316 77.5,314 77.7,313.1 77.9,313.4 78.1,314.8 78.3,317.2 78.5,320.4 78.7,324.3 78.9,328.5 79.1,332.9 79.3,337.1 79.5,340.7 79.7,343.3 79.9,344.8 80.1,344.6 80.3,342.8 80.5,339.4 80.7,334.5 80.9,328.7 81.1,322.6 81.3,316.9 81.5,312.2 81.7,308.8 81.9,306.8 82.1,306.4 82.3,307.3 82.5,309.2 82.7,311.4 82.9,313.6 83.1,315.6 83.2,317.4 83.4,319.4 83.6,322.1 83.8,325.8 84,330.5 84.2,335.8 84.4,341 84.6,345.3 84.8,347.9 85,348.3 85.2,346.6 85.4,343.3 85.6,339 85.8,334.8 86,331.3 86.2,329.1 86.4,328.3 86.6,328.6 86.8,329.6 87,330.9 87.2,332.1 87.4,332.8 87.6,333.1 87.8,333 88,332.8 88.2,332.7 88.4,332.6 88.6,332.4 88.8,331.9 89,331 89.2,329.4 89.4,327 89.6,324.1 89.8,320.7 90,317.4 90.2,314.8 90.4,313.1 90.6,312.5 90.8,313.1 91,314.4 91.1,316.3 91.3,318.3 91.5,320.1 91.7,321.4 91.9,322 92.1,322 92.3,321.4 92.5,320.5 92.7,319.5 92.9,318.8 93.1,318.9 93.3,319.9 93.5,322 93.7,325.3 93.9,329.4 94.1,334 94.3,338.4 94.5,342.2 94.7,344.9 94.9,346.1 95.1,345.8 95.3,344.4 95.5,342.5 95.7,340.7 95.9,339.3 96.1,338.4 96.3,337.7 96.5,336.8 96.7,335.4 96.9,333.2 97.1,330.5 97.3,327.3 97.5,323.9 97.7,320.6 97.9,317.6 98.1,314.9 98.3,312.8 98.5,311.3 98.7,310.6 98.8,310.5 99,310.8 99.2,311.3 99.4,311.6 99.6,311.8 99.8,311.9 100,312.3 100.2,313.3 100.4,315.2 100.6,318 100.8,321.7 101,326.2 101.2,331.2 101.4,336.5 101.6,341.8 101.8,346.9 102,351.6 102.2,355.3 102.4,357.8 102.6,358.7 102.8,357.5 103,354.2 103.2,349 103.4,342.6 103.6,335.5 103.8,328.4 104,321.8 104.2,316.4 104.4,312.4 104.6,310.1 104.8,309.6 105,310.7 105.2,313.3 105.4,316.9 105.6,320.7 105.8,324.3 106,326.9 106.2,328.1 106.4,327.8 106.6,326.2 106.7,323.8 106.9,321.4 107.1,319.5 107.3,318.4 107.5,318.2 107.7,318.9 107.9,320 108.1,321.3 108.3,322.2 108.5,322.5 108.7,322.2 108.9,321.4 109.1,320.6 109.3,320.3 109.5,320.8 109.7,322.1 109.9,324.1 110.1,326.6 110.3,329.5 110.5,332.5 110.7,335.5 110.9,338.5 111.1,341.5 111.3,344.3 111.5,346.6 111.7,348.3 111.9,349 112.1,348.7 112.3,347.1 112.5,344.5 112.7,341 112.9,336.8 113.1,332.2 113.3,327.2 113.5,322.3 113.7,317.6 113.9,313.4 114.1,310.1 114.3,307.9 114.4,307 114.6,307.6 114.8,309.7 115,313 115.2,317.3 115.4,322.2 115.6,327.2 115.8,331.8 116,335.5 116.2,338 116.4,339.2 116.6,339.1 116.8,338 117,336.1 117.2,333.6 117.4,330.7 117.6,327.7 117.8,324.6 118,321.9 118.2,319.8 118.4,318.6 118.6,318.5 118.8,319.4 119,321.3 119.2,323.7 119.4,326.5 119.6,329.4 119.8,332.4 120,335.4 120.2,338 120.4,340 120.6,341 120.8,340.5 121,338.3 121.2,334.4 121.4,329.4 121.6,324.3 121.8,320.2 122,317.7 122.1,317.2 122.3,318.5 122.5,321 122.7,323.9 122.9,326.5 123.1,328.4 123.3,329.2 123.5,328.9 123.7,327.7 123.9,325.8 124.1,323.6 124.3,321.5 124.5,319.8 124.7,318.9 124.9,318.9 125.1,319.7 125.3,321 125.5,322.6 125.7,324 125.9,324.8 126.1,325 126.3,324.5 126.5,323.6 126.7,322.8 126.9,322.5 127.1,322.8 127.3,324 127.5,325.8 127.7,328.1 127.9,330.6 128.1,333 128.3,335.3 128.5,337.2 128.7,338.8 128.9,339.9 129.1,340.4 129.3,340.2 129.5,339.2 129.7,337.4 129.9,335 130,332.2 130.2,329.6 130.4,327.6 130.6,326.5 130.8,326.3 131,326.9 131.2,327.9 131.4,328.9 131.6,329.5 131.8,329.6 132,329.2 132.2,328.7 132.4,328.1 132.6,327.8 132.8,327.9 133,328.3 133.2,329.2 133.4,330.4 133.6,331.7 133.8,332.8 134,333.5 134.2,333.1 134.4,331.5 134.6,328.6 134.8,324.7 135,320.5 135.2,316.5 135.4,313.4 135.6,311.4 135.8,310.4 136,310.2 136.2,310.6 136.4,311.5 136.6,313 136.8,314.9 137,317.4 137.2,320.4 137.4,323.6 137.6,326.7 137.7,329.4 137.9,331.3 138.1,332.2 138.3,332 138.5,330.9 138.7,329.1 138.9,327.1 139.1,325.6 139.3,325 139.5,325.8 139.7,328.3 139.9,332.4 140.1,337.6 140.3,343.1 140.5,348.1 140.7,351.7 140.9,353.4 141.1,353 141.3,350.6 141.5,346.8 141.7,342.3 141.9,337.6 142.1,333.1 142.3,329.2 142.5,325.8 142.7,322.9 142.9,320.6 143.1,318.5 143.3,316.8 143.5,315.4 143.7,314.4 143.9,314 144.1,314.1 144.3,314.7 144.5,315.5 144.7,316.5 144.9,317.5 145.1,318.2 145.3,318.8 145.5,319.1 145.6,319.4 145.8,319.5 146,319.7 146.2,320.1 146.4,321 146.6,322.5 146.8,324.9 147,328.1 147.2,332.1 147.4,336.6 147.6,341.2 147.8,345.1 148,347.8 148.2,348.9 148.4,348.1 148.6,345.4 148.8,341.4 149,336.5 149.2,331.6 149.4,327 149.6,323.3 149.8,320.7 150,319.3 150.2,319.3 150.4,320.8 150.6,323.5 150.8,327.2 151,331.4 151.2,335.5 151.4,338.9 151.6,341.1 151.8,341.7 152,340.9 152.2,338.7 152.4,335.6 152.6,332.1 152.8,328.6 153,325.7 153.2,323.6 153.3,322.3 153.5,321.7 153.7,321.6 153.9,321.8 154.1,322.2 154.3,323.1 154.5,324.4 154.7,325.6 154.9,325.6 155.1,323.6 155.3,319.5 155.5,314.6 155.7,310.3 155.9,307.5 156.1,306.2 156.3,306.1 156.5,306.7 156.7,307.5 156.9,308.4 157.1,309.2 157.3,310.2 157.5,311.3 157.7,312.7 157.9,314.4 158.1,316.6 158.3,319 158.5,321.5 158.7,324.1 158.9,326.9 159.1,330 159.3,333.5 159.5,337.5 159.7,341.9 159.9,346.1 160.1,349.5 160.3,351.4 160.5,351.6 160.7,350.1 160.9,347.1 161.1,343.4 161.2,339.7 161.4,336.5 161.6,334.4 161.8,333.6 162,334 162.2,335.3 162.4,336.9 162.6,338.5 162.8,339.7 163,340.2 163.2,340 163.4,339.2 163.6,337.9 163.8,336.1 164,333.8 164.2,331 164.4,327.8 164.6,324.3 164.8,320.7 165,317.2 165.2,314.3 165.4,312.1 165.6,311 165.8,310.9 166,311.9 166.2,313.7 166.4,316 166.6,318.5 166.8,320.9 167,322.7 167.2,323.9 167.4,324.3 167.6,324.1 167.8,323.4 168,322.8 168.2,322.8 168.4,323.9 168.6,326.3 168.8,329.9 168.9,334.6 169.1,339.5 169.3,344.1 169.5,347.7 169.7,349.9 169.9,350.3 170.1,349.2 170.3,346.7 170.5,343.4 170.7,339.5 170.9,335.5 171.1,331.5 171.3,327.4 171.5,323.6 171.7,320 171.9,317 172.1,314.8 172.3,313.6 172.5,313.2 172.7,313.8 172.9,315 173.1,316.9 173.3,319.3 173.5,322.1 173.7,325.2 173.9,328.2 174.1,330.9 174.3,332.8 174.5,333.7 174.7,333.1 174.9,331.2 175.1,328.1 175.3,324.4 175.5,320.7 175.7,317.7 175.9,315.7 176.1,315.1 176.3,316.2 176.5,318.9 176.7,322.8 176.8,327.5 177,332.3 177.2,336.5 177.4,339.6 177.6,341.1 177.8,340.9 178,339.1 178.2,336 178.4,331.9 178.6,327.3 178.8,322.6 179,318.3 179.2,314.9 179.4,312.7 179.6,311.9 179.8,312.7 180,315 180.2,318.5 180.4,322.9 180.6,327.7 180.8,332.6 181,336.8 181.2,340.1 181.4,341.8 181.6,341.8 181.8,340.1 182,337.1 182.2,333.6 182.4,330.4 182.6,327.9 182.8,326.5 183,326.2 183.2,326.8 183.4,327.9 183.6,329.3 183.8,330.6 184,331.6 184.2,332.2 184.4,332.2 184.5,331.6 184.7,330.3 184.9,328.4 185.1,326.1 185.3,323.8 185.5,321.8 185.7,320.3 185.9,319.5 186.1,319.6 186.3,320.3 186.5,321.8 186.7,323.7 186.9,326.2 187.1,328.8 187.3,331.4 187.5,333.7 187.7,335.2 187.9,335.8 188.1,335.4 188.3,334 188.5,331.9 188.7,329.6 188.9,327.3 189.1,325.5 189.3,324.3 189.5,323.8 189.7,323.6 189.9,323.6 190.1,323.5 190.3,323.1 190.5,322.4 190.7,321.4 190.9,320.3 191.1,319.3 191.3,318.6 191.5,318.4 191.7,318.7 191.9,319.4 192.1,320.4 192.3,321.5 192.4,322.6 192.6,323.5 192.8,324.5 193,325.7 193.2,327.3 193.4,329.8 193.6,332.9 193.8,336.8 194,340.9 194.2,344.8 194.4,348 194.6,349.9 194.8,350.4 195,349.5 195.2,347.5 195.4,344.6 195.6,341.2 195.8,337.6 196,333.9 196.2,330.3 196.4,327.1 196.6,324.5 196.8,322.7 197,321.7 197.2,321.6 197.4,322.2 197.6,323.2 197.8,324.4 198,325.4 198.2,326.2 198.4,326.6 198.6,326.4 198.8,325.9 199,325.1 199.2,324 199.4,323 199.6,322.1 199.8,321.4 200,320.9 200.1,320.7 200.3,320.9 200.5,321.6 200.7,322.9 200.9,324.7 201.1,326.9 201.3,329.4 201.5,331.5 201.7,332.7 201.9,332.8 202.1,331.7 202.3,329.9 202.5,327.7 202.7,325.8 202.9,324.5 203.1,324.1 203.3,324.5 203.5,325.8 203.7,327.8 203.9,330 204.1,332.3 204.3,334.2 204.5,335.5 204.7,335.9 204.9,335.6 205.1,334.7 205.3,333.4 205.5,331.8 205.7,330 205.9,328.2 206.1,326.4 206.3,324.6 206.5,323 206.7,321.6 206.9,320.8 207.1,320.8 207.3,321.7 207.5,323.6 207.7,326.5 207.9,330.1 208,334.1 208.2,337.8 208.4,340.6 208.6,342.2 208.8,342.7 209,342 209.2,340.4 209.4,338 209.6,335.1 209.8,331.8 210,328.6 210.2,325.6 210.4,323.3 210.6,321.6 210.8,320.7 211,320.5 211.2,320.7 211.4,321.3 211.6,322.2 211.8,323.4 212,325 212.2,326.8 212.4,328.9 212.6,331 212.8,332.7 213,333.8 213.2,334 213.4,333.3 213.6,331.7 213.8,329.3 214,326.6 214.2,323.9 214.4,321.6 214.6,319.9 214.8,318.9 215,318.7 215.2,319 215.4,319.8 215.6,320.8 215.7,322.1 215.9,323.5 216.1,325.2 216.3,326.9 216.5,328.7 216.7,330.4 216.9,332 217.1,333.3 217.3,334.2 217.5,334.7 217.7,335 217.9,335.4 218.1,335.7 218.3,335.6 218.5,334.7 218.7,332.6 218.9,329.9 219.1,327.2 219.3,325.3 219.5,324.4 219.7,324.8 219.9,326.4 220.1,328.7 220.3,331.3 220.5,333.4 220.7,334.7 220.9,334.7 221.1,333.4 221.3,330.9 221.5,327.7 221.7,324.2 221.9,320.8 222.1,317.9 222.3,315.7 222.5,314.4 222.7,314 222.9,314.4 223.1,315.5 223.3,317.2 223.5,319.3 223.6,321.7 223.8,324.3 224,326.8 224.2,329.3 224.4,331.7 224.6,334 224.8,336.3 225,338.5 225.2,340.6 225.4,342.1 225.6,342.8 225.8,342.4 226,341 226.2,338.8 226.4,336 226.6,332.9 226.8,329.7 227,326.6 227.2,323.7 227.4,321.3 227.6,319.6 227.8,318.7 228,318.7 228.2,319.5 228.4,321.2 228.6,323.5 228.8,325.9 229,328.1 229.2,329.6 229.4,330.1 229.6,329.6 229.8,328.3 230,326.5 230.2,324.5 230.4,322.8 230.6,321.8 230.8,321.7 231,322.7 231.2,324.6 231.3,327 231.5,329.5 231.7,331.2 231.9,331.9 232.1,331.4 232.3,330 232.5,328.2 232.7,326.4 232.9,325.1 233.1,324.4 233.3,324.4 233.5,325.2 233.7,326.8 233.9,329.1 234.1,332 234.3,335.1 234.5,338.1 234.7,340.6 234.9,342.2 235.1,342.8 235.3,342.1 235.5,340.2 235.7,337.2 235.9,333.4 236.1,329.2 236.3,325.1 236.5,321.4 236.7,318.6 236.9,316.8 237.1,316.4 237.3,317.1 237.5,318.8 237.7,321.2 237.9,324 238.1,326.6 238.3,328.9 238.5,330.6 238.7,331.8 238.9,332.6 239.1,333.1 239.2,333.5 239.4,333.9 239.6,334.5 239.8,335 240,335.4 240.2,335.7 240.4,335.8 240.6,335.7 240.8,335.2 241,334.3 241.2,332.7 241.4,330.5 241.6,327.6 241.8,324.2 242,320.9 242.2,317.9 242.4,315.6 242.6,314.3 242.8,314.1 243,315 243.2,316.8 243.4,319.3 243.6,322.4 243.8,325.9 244,329.8 244.2,334.2 244.4,338.9 244.6,343.9 244.8,348.6 245,352.4 245.2,354.5 245.4,354.6 245.6,352.5 245.8,348.4 246,343 246.2,336.6 246.4,330.1 246.6,323.8 246.8,318.2 246.9,313.4 247.1,309.7 247.3,307.2 247.5,306 247.7,305.9 247.9,306.8 248.1,308.7 248.3,311.3 248.5,314.2 248.7,317.4 248.9,320.4 249.1,323.1 249.3,325.6 249.5,327.6 249.7,329.3 249.9,330.5 250.1,331.3 250.3,331.4 250.5,330.8 250.7,329.5 250.9,327.7 251.1,325.5 251.3,323.2 251.5,321.2 251.7,319.5 251.9,318.3 252.1,317.3 252.3,316.8 252.5,316.6 252.7,317 252.9,317.9 253.1,319.4 253.3,321.6 253.5,324.2 253.7,327.2 253.9,330.4 254.1,333.6 254.3,336.6 254.5,339.4 254.7,341.8 254.8,343.6 255,344.7 255.2,345.2 255.4,345.1 255.6,344.6 255.8,343.8 256,342.9 256.2,341.9 256.4,340.8 256.6,339.8 256.8,339 257,338.3 257.2,337.9 257.4,337.4 257.6,336.9 257.8,336.1 258,334.8 258.2,333 258.4,330.5 258.6,327.2 258.8,323.3 259,318.9 259.2,314.5 259.4,310.6 259.6,307.7 259.8,306.2 260,306.3 260.2,308 260.4,311.1 260.6,315.1 260.8,319.5 261,323.4 261.2,326.1 261.4,327 261.6,326.1 261.8,324 262,321.2 262.2,318.9 262.4,317.8 262.5,318.3 262.7,320.5 262.9,324.3 263.1,329 263.3,333.8 263.5,337.8 263.7,340.3 263.9,340.9 264.1,339.8 264.3,337.5 264.5,334.7 264.7,332 264.9,329.6 265.1,327.8 265.3,326.6 265.5,325.9 265.7,325.8 265.9,326 266.1,326.7 266.3,327.6 266.5,328.6 266.7,329.2 266.9,329.3 267.1,328.5 267.3,326.9 267.5,324.4 267.7,321.7 267.9,319.1 268.1,317.1 268.3,316.1 268.5,316.4 268.7,318.1 268.9,321.4 269.1,326 269.3,331.7 269.5,337.6 269.7,343.1 269.9,347.2 270.1,349.2 270.2,348.8 270.4,346.4 270.6,343 270.8,339.5 271,336.4 271.2,334.2 271.4,332.7 271.6,331.9 271.8,331.6 272,331.4 272.2,331.1 272.4,330.7 272.6,330.1 272.8,329.1 273,328 273.2,326.7 273.4,325.4 273.6,324.2 273.8,323 274,321.8 274.2,320.4 274.4,318.8 274.6,317 274.8,315.4 275,314.4 275.2,314.3 275.4,315.2 275.6,317.2 275.8,320 276,323.5 276.2,327 276.4,330.2 276.6,332.7 276.8,334.1 277,334.4 277.2,333.6 277.4,331.8 277.6,329.5 277.8,326.8 278,324.3 278.1,322.5 278.3,321.8 278.5,322.4 278.7,324.4 278.9,327.5 279.1,331.3 279.3,335.2 279.5,338.7 279.7,341.4 279.9,342.9 280.1,343.3 280.3,342.5 280.5,340.5 280.7,337.5 280.9,333.5 281.1,328.9 281.3,323.8 281.5,318.6 281.7,314 281.9,310.4 282.1,308.5 282.3,308.6 282.5,310.7 282.7,314.5 282.9,319.5 283.1,324.8 283.3,329.8 283.5,333.8 283.7,336.3 283.9,337 284.1,336.1 284.3,333.8 284.5,330.6 284.7,326.9 284.9,323.4 285.1,320.6 285.3,319 285.5,318.6 285.7,319.7 285.8,321.8 286,324.6 286.2,327.6 286.4,330.5 286.6,332.8 286.8,334.3 287,334.9 287.2,334.3 287.4,332.5 287.6,329.7 287.8,326.3 288,322.8 288.2,319.9 288.4,318 288.6,317.4 288.8,318.2 289,320.2 289.2,322.8 289.4,325.4 289.6,327.2 289.8,328 290,327.6 290.2,326.6 290.4,325.2 290.6,323.9 290.8,322.9 291,322 291.2,321.3 291.4,320.5 291.6,319.6 291.8,318.7 292,317.9 292.2,317.4 292.4,317.4 292.6,318 292.8,319.2 293,321 293.2,323.1 293.4,325.4 293.6,327.6 293.7,329.7 293.9,331.6 294.1,333.2 294.3,334.6 294.5,335.7 294.7,336.5 294.9,336.9 295.1,337 295.3,336.8 295.5,336.5 295.7,336.3 295.9,336.5 296.1,337.2 296.3,338.6 296.5,340.5 296.7,342.9 296.9,345.6 297.1,348.1 297.3,350.3 297.5,351.7 297.7,352.2 297.9,351.3 298.1,349.2 298.3,345.7 298.5,341.3 298.7,336.3 298.9,331.2 299.1,326.5 299.3,322.5 299.5,319.5 299.7,317.6 299.9,316.5 300.1,316 300.3,315.5 300.5,314.9 300.7,314.1 300.9,313.3 301.1,312.7 301.3,312.8 301.4,313.8 301.6,315.7 301.8,318.5 302,321.8 302.2,325.4 302.4,328.9 302.6,332 302.8,334.4 303,336.3 303.2,337.6 303.4,338.3 303.6,338.4 303.8,337.7 304,336.2 304.2,334 304.4,331.3 304.6,328.7 304.8,326.4 305,324.8 305.2,324 305.4,323.8 305.6,323.9 305.8,324.1 306,324.1 306.2,323.8 306.4,323.2 306.6,322.6 306.8,322.1 307,321.9 307.2,322.2 307.4,323.2 307.6,324.9 307.8,327.2 308,329.6 308.2,331.7 308.4,332.9 308.6,332.9 308.8,331.5 309,328.8 309.2,325.4 309.3,321.7 309.5,318.5 309.7,316.3 309.9,315.5 310.1,316.1 310.3,317.7 310.5,320.1 310.7,322.8 310.9,325.5 311.1,327.9 311.3,329.8 311.5,331.1 311.7,331.8 311.9,332.1 312.1,332.3 312.3,333 312.5,334.4 312.7,336.4 312.9,338.9 313.1,341.4 313.3,343.2 313.5,344 313.7,343.4 313.9,341.6 314.1,338.8 314.3,335.4 314.5,331.8 314.7,328.3 314.9,325.1 315.1,322.4 315.3,320.2 315.5,318.5 315.7,317.2 315.9,316.2 316.1,315.4 316.3,314.7 316.5,314.3 316.7,314.2 316.9,314.6 317,315.8 317.2,317.6 317.4,320.3 317.6,323.7 317.8,327.4 318,331.3 318.2,334.9 318.4,337.9 318.6,339.8 318.8,340.5 319,339.9 319.2,338.4 319.4,336.2 319.6,333.8 319.8,331.6 320,329.8 320.2,328.6 320.4,328 320.6,328.2 320.8,329 321,330.1 321.2,331.6 321.4,333 321.6,334.4 321.8,335.6 322,336.5 322.2,337 322.4,337.3 322.6,337.4 322.8,337.4 323,337.2 323.2,336.8 323.4,336.1 323.6,334.8 323.8,332.8 324,330.1 324.2,327 324.4,323.5 324.6,320.1 324.8,316.9 324.9,314.2 325.1,312 325.3,310.4 325.5,309.5 325.7,309.3 325.9,309.6 326.1,310.3 326.3,311.6 326.5,313.4 326.7,316.1 326.9,319.4 327.1,323.4 327.3,327.5 327.5,331.3 327.7,334.3 327.9,336.2 328.1,336.8 328.3,336.6 328.5,336 328.7,335.6 328.9,336.1 329.1,337.7 329.3,340.5 329.5,344.2 329.7,347.9 329.9,350.9 330.1,352.5 330.3,352.3 330.5,350.4 330.7,346.9 330.9,342.2 331.1,336.9 331.3,331.4 331.5,326.1 331.7,321.2 331.9,317 332.1,313.5 332.3,310.7 332.5,308.6 332.6,307.3 332.8,306.7 333,306.5 333.2,306.8 333.4,307.2 333.6,307.6 333.8,307.9 334,308.1 334.2,308.4 334.4,308.9 334.6,309.8 334.8,311.3 335,313.4 335.2,316.1 335.4,319.4 335.6,323 335.8,326.6 336,330 336.2,333 336.4,335.6 336.6,338 336.8,340.1 337,342.3 337.2,344.4 337.4,346.3 337.6,347.8 337.8,348.7 338,348.7 338.2,347.6 338.4,345.5 338.6,342.4 338.8,338.6 339,334.6 339.2,330.6 339.4,327 339.6,324.2 339.8,322.2 340,321.1 340.2,320.9 340.4,321.6 340.5,322.8 340.7,324.4 340.9,326.4 341.1,328.6 341.3,330.8 341.5,332.8 341.7,334.2 341.9,334.6 342.1,333.6 342.3,331.2 342.5,327.8 342.7,324 342.9,320.5 343.1,318 343.3,316.9 343.5,317.4 343.7,319.4 343.9,322.5 344.1,326.3 344.3,330 344.5,333.2 344.7,335.4 344.9,336.4 345.1,336.2 345.3,335.3 345.5,334 345.7,332.8 345.9,331.9 346.1,331.5 346.3,331.4 346.5,331.6 346.7,331.9 346.9,332.4 347.1,332.9 347.3,333.3 347.5,333.5 347.7,333.5 347.9,333 348.1,332 348.2,330.6 348.4,328.6 348.6,326.3 348.8,323.6 349,320.9 349.2,318.5 349.4,316.8 349.6,316 349.8,316.2 350,317.4 350.2,319.4 350.4,321.5 350.6,323.4 350.8,324.7 351,325.4 351.2,325.5 351.4,325.4 351.6,325.6 351.8,326.3 352,327.7 352.2,329.5 352.4,331.5 352.6,333.2 352.8,334.3 353,334.6 353.2,334.2 353.4,333.1 353.6,331.5 353.8,329.6 354,327.7 354.2,326.1 354.4,325.2 354.6,325.2 354.8,326 355,327.5 355.2,329.2 355.4,330.9 355.6,332.4 355.8,333.4 356,334.1 356.1,334.2 356.3,333.9 356.5,333 356.7,331.7 356.9,330.1 357.1,328.3 357.3,326.6 357.5,325.2 357.7,324.4 357.9,324.5 358.1,325.5 358.3,327.3 358.5,329.6 358.7,332 358.9,334 359.1,335.5 359.3,336.3 359.5,336.5 359.7,336.3 359.9,335.8 360.1,334.9 360.3,333.8 360.5,332.4 360.7,330.7 360.9,329 361.1,327.2 361.3,325.6 361.5,324.3 361.7,323.2 361.9,322.3 362.1,321.4 362.3,320.6 362.5,319.8 362.7,318.9 362.9,317.9 363.1,316.7 363.3,315.4 363.5,314.1 363.7,313 363.8,312.4 364,312.3 364.2,312.9 364.4,314.1 364.6,315.8 364.8,318 365,320.5 365.2,323.1 365.4,325.8 365.6,328.4 365.8,330.6 366,332.2 366.2,333.2 366.4,333.5 366.6,333.1 366.8,332.3 367,331.2 367.2,330 367.4,328.7 367.6,327.7 367.8,327 368,326.8 368.2,327.3 368.4,328.4 368.6,329.8 368.8,331.4 369,332.9 369.2,334.2 369.4,335.4 369.6,336.4 369.8,337.3 370,338 370.2,338.4 370.4,338.9 370.6,339.5 370.8,340.4 371,341.8 371.2,343.6 371.4,345.5 371.6,347.3 371.7,348.6 371.9,349.1 372.1,348.5 372.3,346.8 372.5,343.9 372.7,340.2 372.9,335.8 373.1,331.2 373.3,326.6 373.5,322.2 373.7,318.1 373.9,314.1 374.1,310.5 374.3,307.2 374.5,304.7 374.7,303.3 374.9,303.2 375.1,304.7 375.3,307.4 375.5,311.2 375.7,315.4 375.9,319.6 376.1,323.4 376.3,326.6 376.5,329 376.7,330.5 376.9,331.2 377.1,331.1 377.3,330.5 377.5,329.4 377.7,328.2 377.9,327.2 378.1,326.5 378.3,326.6 378.5,327.5 378.7,329.5 378.9,332.3 379.1,335.5 379.3,338.7 379.4,341.1 379.6,342.4 379.8,342.6 380,341.7 380.2,340.4 380.4,338.9 380.6,337.9 380.8,337.3 381,337.4 381.2,337.7 381.4,338.1 381.6,338.2 381.8,337.6 382,336.3 382.2,334.2 382.4,331.4 382.6,328.2 382.8,324.9 383,321.8 383.2,319 383.4,316.7 383.6,315.1 383.8,314.2 384,314.1 384.2,314.6 384.4,315.7 384.6,317.2 384.8,318.7 385,320.1 385.2,320.9 385.4,321.1 385.6,320.6 385.8,319.5 386,318.2 386.2,317.2 386.4,316.8 386.6,317.4 386.8,319 387,321.7 387.2,325.3 387.3,329.6 387.5,334.2 387.7,339 387.9,343.4 388.1,347.1 388.3,349.3 388.5,349.4 388.7,347.2 388.9,342.6 389.1,336.4 389.3,329.4 389.5,322.5 389.7,316.7 389.9,312.2 390.1,309.3 390.3,308.1 390.5,308.5 390.7,310.1 390.9,312.7 391.1,316 391.3,319.6 391.5,323.1 391.7,326.1 391.9,328.4 392.1,329.8 392.3,330.2 392.5,330 392.7,329.3 392.9,328.4 393.1,327.6 393.3,326.9 393.5,326.7 393.7,326.8 393.9,327.5 394.1,328.4 394.3,329.5 394.5,330.5 394.7,331.5 394.9,332.6 395,333.8 395.2,335.2 395.4,336.6 395.6,338 395.8,339.2 396,340.1 396.2,340.4 396.4,340.2 396.6,339.4 396.8,337.9 397,335.9 397.2,333.3 397.4,330.4 397.6,327.2 397.8,323.9 398,320.7 398.2,317.9 398.4,315.6 398.6,313.9 398.8,313 399,313 399.2,313.7 399.4,314.9 399.6,316.5 399.8,318.1 400,319.7 400.2,321.4 400.4,323.4 400.6,325.6 400.8,327.9 401,330.3 401.2,332.6 401.4,334.5 401.6,336.1 401.8,337.3 402,338.2 402.2,339 402.4,339.6 402.6,339.9 402.8,339.5 402.9,338.2 403.1,335.7 403.3,332.1 403.5,328 403.7,323.8 403.9,320.3 404.1,318 404.3,317.1 404.5,318 404.7,320.3 404.9,323.8 405.1,327.9 405.3,332 405.5,335.6 405.7,338.4 405.9,340.2 406.1,341.1 406.3,340.9 406.5,339.6 406.7,337.1 406.9,333.6 407.1,329.3 407.3,324.3 407.5,319 407.7,313.8 407.9,308.9 408.1,304.7 408.3,301.5 408.5,299.5 408.7,298.9 408.9,299.6 409.1,301.7 409.3,304.9 409.5,309 409.7,313.7 409.9,318.8 410.1,324.2 410.3,329.7 410.5,335.4 410.6,341.1 410.8,346.6 411,351.6 411.2,355.6 411.4,358.3 411.6,359.5 411.8,359.2 412,357.7 412.2,355.1 412.4,351.9 412.6,348.1 412.8,344 413,339.7 413.2,335.2 413.4,330.7 413.6,326.4 413.8,322.5 414,319.5 414.2,317.3 414.4,315.9 414.6,315.1 414.8,314.4 415,313.7 415.2,313.1 415.4,312.5 415.6,312.1 415.8,311.9 416,311.6 416.2,311.4 416.4,311.5 416.6,311.9 416.8,313 417,314.9 417.2,317.2 417.4,319.9 417.6,322.5 417.8,324.7 418,326.4 418.2,327.4 418.3,327.7 418.5,327.5 418.7,326.6 418.9,325.1 419.1,323.1 419.3,320.9 419.5,318.9 419.7,317.4 419.9,316.9 420.1,317.5 420.3,319.1 420.5,321.5 420.7,324.5 420.9,327.6 421.1,330.5 421.3,332.8 421.5,334.3 421.7,335.1 421.9,335.4 422.1,335.3 422.3,335.2 422.5,335.4 422.7,336.1 422.9,337.5 423.1,339.5 423.3,342 423.5,344.7 423.7,347.2 423.9,349 424.1,350 424.3,350 424.5,349.1 424.7,347.4 424.9,345.1 425.1,342.3 425.3,339.4 425.5,336.2 425.7,332.9 425.9,329.5 426.1,326.1 426.2,322.8 426.4,319.8 426.6,317.3 426.8,315.2 427,313.6 427.2,312.4 427.4,36.4 427.6,38.4 427.8,42.3 428,48.2 428.2,56.8 428.4,68.5 428.6,84 428.8,103.7 429,127.1 429.2,152.1 429.4,175.4 429.6,193.5 429.8,205.9 430,214.1 430.2,220 430.4,224.6 430.6,228.6 430.8,231.9 431,234.5 431.2,236.5 431.4,237.9 431.6,238.1 431.8,237.1 432,234.7 432.2,231.6 432.4,228.3 432.6,225.7 432.8,223.9 433,223.2 433.2,223 433.4,223 433.6,222.6 433.8,221.4 433.9,219.7 434.1,217.8 434.3,216 434.5,214.6 434.7,213.6 434.9,213.1 435.1,213 435.3,213.4 435.5,213.9 435.7,214.6 435.9,215.1 436.1,215.4 436.3,215.4 436.5,215 436.7,214.4 436.9,213.8 437.1,213.3 437.3,213.3 437.5,214 437.7,215.4 437.9,217.4 438.1,219.6 438.3,221.7 438.5,223.2 438.7,224.1 438.9,224.4 439.1,224.7 439.3,225.1 439.5,225.7 439.7,226.5 439.9,226.7 440.1,225.9 440.3,223.5 440.5,219.9 440.7,215.8 440.9,212.3 441.1,210.5 441.3,211.3 441.5,214.8 441.7,220.9 441.8,228.5 442,236.5 442.2,243.5 442.4,248.7 442.6,251.6 442.8,252 443,250.3 443.2,246.6 443.4,241.6 443.6,236 443.8,230.6 444,225.8 444.2,221.6 444.4,217.5 444.6,213.5 444.8,209.4 445,205.7 445.2,203.1 445.4,202.3 445.6,203.6 445.8,206.8 446,211.7 446.2,217.4 446.4,223.2 446.6,228.4 446.8,232.5 447,235.3 447.2,236.6 447.4,236.1 447.6,233.9 447.8,230.2 448,225.4 448.2,220.4 448.4,216.1 448.6,213.2 448.8,212.1 449,212.6 449.2,214.2 449.4,216 449.5,217.5 449.7,218.1 449.9,218.1 450.1,217.5 450.3,217 450.5,217 450.7,217.7 450.9,219.3 451.1,221.7 451.3,224.7 451.5,227.6 451.7,230 451.9,231.4 452.1,231.7 452.3,231 452.5,229.9 452.7,229 452.9,228.7 453.1,229.6 453.3,231.5 453.5,234.5 453.7,238 453.9,241.7 454.1,244.8 454.3,247 454.5,248.3 454.7,248.9 454.9,249.2 455.1,249.1 455.3,248.6 455.5,247.5 455.7,245.6 455.9,243.2 456.1,240.6 456.3,237.9 456.5,235.3 456.7,232.7 456.9,230 457.1,227.4 457.3,225.3 457.4,223.9 457.6,223.2 457.8,223.2 458,223.8 458.2,224.8 458.4,226.2 458.6,227.7 458.8,228.8 459,229.1 459.2,228.4 459.4,226.8 459.6,224.5 459.8,222.1 460,219.9 460.2,218 460.4,216.5 460.6,215.4 460.8,215.1 461,215.9 461.2,218.4 461.4,222.7 461.6,228.7 461.8,235.6 462,242.1 462.2,247 462.4,249 462.6,247.5 462.8,242.5 463,234.9 463.2,225.7 463.4,216.2 463.6,207.8 463.8,201.4 464,197.6 464.2,196.6 464.4,198.2 464.6,201.7 464.8,206.3 465,211.6 465.1,217.3 465.3,223.4 465.5,230.3 465.7,238.2 465.9,246.8 466.1,255.3 466.3,262.4 466.5,267 466.7,268.2 466.9,265.9 467.1,260.6 467.3,253.4 467.5,245.4 467.7,237.5 467.9,230.4 468.1,224.4 468.3,219.8 468.5,216.8 468.7,215.9 468.9,217.3 469.1,221.2 469.3,227.3 469.5,234.6 469.7,241.6 469.9,246.5 470.1,248.4 470.3,247.8 470.5,245.6 470.7,242.9 470.9,239.9 471.1,237 471.3,234.5 471.5,232.5 471.7,231.2 471.9,230.4 472.1,229.8 472.3,229.2 472.5,228.8 472.7,228.5 472.9,228.6 473,229 473.2,229.5 473.4,230.1 473.6,230.9 473.8,232 474,233.8 474.2,236.3 474.4,239.4 474.6,242.8 474.8,245.9 475,248 475.2,248.7 475.4,247.9 475.6,246.2 475.8,244.5 476,243.4 476.2,243.4 476.4,244.3 476.6,245.5 476.8,246.3 477,246.1 477.2,244.7 477.4,242.5 477.6,240.1 477.8,238 478,236.4 478.2,235 478.4,233.3 478.6,231.1 478.8,228.2 479,224.7 479.2,221.2 479.4,218.3 479.6,216.5 479.8,216.4 480,218.3 480.2,222 480.4,227.3 480.6,233.6 480.7,240 480.9,245.9 481.1,250.8 481.3,254.6 481.5,257.1 481.7,257.9 481.9,257 482.1,254.6 482.3,251 482.5,246.8 482.7,242.5 482.9,238.5 483.1,234.9 483.3,231.9 483.5,229.6 483.7,228.1 483.9,227.5 484.1,227.9 484.3,229.1 484.5,230.8 484.7,232.5 484.9,234 485.1,234.9 485.3,235.4 485.5,235.3 485.7,234.8 485.9,233.7 486.1,232 486.3,229.7 486.5,227 486.7,224.4 486.9,222.4 487.1,221.4 487.3,221.7 487.5,223.4 487.7,226.1 487.9,229.3 488.1,232.4 488.3,234.8 488.5,236.3 488.6,237.1 488.8,237.5 489,238.2 489.2,239.7 489.4,242.1 489.6,245.3 489.8,248.4 490,250.8 490.2,251.4 490.4,249.9 490.6,246.6 490.8,242.4 491,238.4 491.2,235.4 491.4,233.8 491.6,233.7 491.8,234.5 492,235.6 492.2,236 492.4,235.4 492.6,234.3 492.8,233.6 493,233.8 493.2,235.5 493.4,238.4 493.6,242.3 493.8,246.7 494,250.9 494.2,254.1 494.4,255.8 494.6,255.5 494.8,253.5 495,250.1 495.2,246.2 495.4,242.4 495.6,239.3 495.8,237.2 496,236 496.2,235.5 496.3,235.3 496.5,235.3 496.7,235.3 496.9,235.1 497.1,235 497.3,235.1 497.5,235.5 497.7,236.6 497.9,238.5 498.1,241.5 498.3,245.3 498.5,249.4 498.7,252.9 498.9,255 499.1,254.9 499.3,252.6 499.5,248.8 499.7,244.3 499.9,239.8 500.1,235.9 500.3,232.8 500.5,230.4 500.7,228.6 500.9,227.6 501.1,227.2 501.3,227.8 501.5,229.2 501.7,231.4 501.9,233.9 502.1,236 502.3,237.2 502.5,237.1 502.7,235.7 502.9,233.2 503.1,230.1 503.3,226.8 503.5,223.9 503.7,221.6 503.9,220.4 504.1,220.2 504.2,221.1 504.4,222.8 504.6,224.9 504.8,227 505,228.8 505.2,230 505.4,230.8 505.6,231.5 505.8,232.5 506,234.4 506.2,237.2 506.4,240.8 506.6,245 506.8,249.2 507,252.9 507.2,255.5 507.4,256.8 507.6,256.5 507.8,255.3 508,254 508.2,253.3 508.4,253.9 508.6,256.3 508.8,260.2 509,265.5 509.2,271.4 509.4,276.7 509.6,280.1 509.8,280.2 510,276.7 510.2,270.4 510.4,262.7 510.6,255.1 510.8,248.7 511,243.9 511.2,240.8 511.4,238.9 511.6,237.7 511.8,236.8 511.9,235.9 512.1,235 512.3,234.1 512.5,233.2 512.7,232.2 512.9,231.1 513.1,230 513.3,229.3 513.5,229 513.7,229.5 513.9,230.6 514.1,232.3 514.3,234.2 514.5,235.8 514.7,236.5 514.9,236.1 515.1,234.5 515.3,232 515.5,229 515.7,226.2 515.9,224.2 516.1,223.3 516.3,223.8 516.5,225.2 516.7,227 516.9,228.3 517.1,228.6 517.3,228.2 517.5,227.4 517.7,227.1 517.9,227.5 518.1,228.6 518.3,230 518.5,230.8 518.7,230.3 518.9,228.2 519.1,225.4 519.3,222.9 519.5,222 519.7,223.1 519.8,226.5 520,231.6 520.2,237.7 520.4,243.6 520.6,248.3 520.8,251.2 521,252 521.2,250.9 521.4,248.6 521.6,245.5 521.8,242.2 522,239.1 522.2,236.2 522.4,233.8 522.6,231.8 522.8,230.2 523,229.1 523.2,228.6 523.4,228.9 523.6,230 523.8,231.6 524,233.2 524.2,234.4 524.4,234.9 524.6,234.5 524.8,233.3 525,231.5 525.2,229.3 525.4,226.9 525.6,224.7 525.8,223.1 526,222.4 526.2,222.9 526.4,224.7 526.6,227.7 526.8,231.5 527,235.5 527.2,239 527.4,241.2 527.5,241.9 527.7,241.5 527.9,240.5 528.1,240 528.3,240.8 528.5,243.5 528.7,247.9 528.9,253.8 529.1,260.5 529.3,267 529.5,272.6 529.7,276.5 529.9,278.2 530.1,277.5 530.3,274.6 530.5,269.9 530.7,263.9 530.9,257.4 531.1,250.9 531.3,245.1 531.5,240.7 531.7,238 531.9,237.3 532.1,238.5 532.3,240.9 532.5,243.8 532.7,246.2 532.9,247.2 533.1,246.1 533.3,243.2 533.5,239.2 533.7,234.8 533.9,230.8 534.1,227.9 534.3,226.4 534.5,226.3 534.7,227.5 534.9,229.7 535.1,232.4 535.3,234.7 535.4,235.8 535.6,235.3 535.8,233 536,229.1 536.2,224.4 536.4,219.7 536.6,215.7 536.8,213 537,211.8 537.2,211.9 537.4,213.1 537.6,215.2 537.8,217.7 538,220.6 538.2,223.8 538.4,227.4 538.6,231.3 538.8,235.6 539,239.8 539.2,243.6 539.4,246.3 539.6,247.3 539.8,246.4 540,243.7 540.2,239.8 540.4,235.8 540.6,232.7 540.8,231.4 541,232.2 541.2,235.1 541.4,239.6 541.6,244.8 541.8,249.4 542,252.3 542.2,252.5 542.4,250.1 542.6,245.7 542.8,240.3 543,234.8 543.1,230 543.3,226.1 543.5,223.1 543.7,220.9 543.9,219.3 544.1,218 544.3,217 544.5,216 544.7,215.2 544.9,214.7 545.1,214.8 545.3,215.6 545.5,217.2 545.7,219.7 545.9,223 546.1,226.9 546.3,231.4 546.5,236.2 546.7,241.1 546.9,245.8 547.1,249.6 547.3,252.2 547.5,253.1 547.7,252.5 547.9,250.6 548.1,248 548.3,245.6 548.5,243.7 548.7,242.9 548.9,243.2 549.1,244.2 549.3,245.7 549.5,247.2 549.7,248.7 549.9,250.2 550.1,252 550.3,254.2 550.5,256.9 550.7,260 550.9,263 551,265.4 551.2,266.9 551.4,267.2 551.6,266.2 551.8,264.4 552,262.1 552.2,259.6 552.4,257.4 552.6,255.6 552.8,254.4 553,253.7 553.2,253.3 553.4,253 553.6,252.4 553.8,251 554,248.4 554.2,244.6 554.4,239.9 554.6,235 554.8,230.6 555,227 555.2,224.6 555.4,223.2 555.6,222.9 555.8,223.6 556,225.2 556.2,227.4 556.4,229.8 556.6,231.9 556.8,233.2 557,233.7 557.2,233.7 557.4,233.6 557.6,233.6 557.8,233.7 558,234 558.2,234.1 558.4,234.2 558.6,234.1 558.7,234 558.9,234 559.1,234.2 559.3,234.6 559.5,235 559.7,235.2 559.9,235.4 560.1,235.7 560.3,236.4 560.5,237.6 560.7,238.8 560.9,239.8 561.1,240 561.3,239.5 561.5,238.5 561.7,237.2 561.9,236.1 562.1,235.2 562.3,234.5 562.5,234.2 562.7,234.3 562.9,234.9 563.1,236 563.3,237.5 563.5,239.2 563.7,240.9 563.9,242.4 564.1,243.2 564.3,243.1 564.5,241.8 564.7,239.9 564.9,238.1 565.1,237.4 565.3,238.1 565.5,240 565.7,242.4 565.9,244.2 566.1,244.9 566.3,244.1 566.4,242.1 566.6,239.3 566.8,236.6 567,234.6 567.2,234 567.4,235.1 567.6,237.9 567.8,241.9 568,246.4 568.2,250.5 568.4,253.6 568.6,255.3 568.8,255.8 569,255.1 569.2,253.2 569.4,250 569.6,245.3 569.8,239.8 570,234 570.2,228.9 570.4,224.9 570.6,222.4 570.8,221.3 571,221.5 571.2,222.9 571.4,225.4 571.6,228.6 571.8,232.2 572,235.8 572.2,239.1 572.4,242 572.6,244.1 572.8,245.4 573,245.5 573.2,244.6 573.4,242.9 573.6,240.9 573.8,239.4 574,238.7 574.2,239 574.3,240.3 574.5,242.3 574.7,244.7 574.9,246.9 575.1,248.5 575.3,249.3 575.5,249.2 575.7,248.6 575.9,247.7 576.1,246.5 576.3,245.1 576.5,243.3 576.7,241.1 576.9,238.6 577.1,235.8 577.3,232.9 577.5,230.1 577.7,227.4 577.9,224.9 578.1,222.6 578.3,220.3 578.5,218.2 578.7,216.3 578.9,214.8 579.1,213.7 579.3,213.2 579.5,213 579.7,213.2 579.9,213.6 580.1,214.2 580.3,215 580.5,215.9 580.7,216.6 580.9,217 581.1,216.8 581.3,215.9 581.5,214.4 581.7,212.5 581.9,210.6 582,209.1 582.2,208.3 582.4,208.5 582.6,209.6 582.8,211.5 583,214.1 583.2,217 583.4,220 583.6,223 583.8,225.8 584,228 584.2,229.6 584.4,230.3 584.6,230.3 584.8,229.8 585,229.1 585.2,228.6 585.4,228.3 585.6,228.6 585.8,229.5 586,231 586.2,233 586.4,235.3 586.6,237.5 586.8,239.4 587,240.3 587.2,240.1 587.4,238.7 587.6,236.3 587.8,233.7 588,231.5 588.2,230.4 588.4,230.6 588.6,232 588.8,234.5 589,237.6 589.2,240.6 589.4,243.2 589.6,245.1 589.8,246.1 589.9,246.1 590.1,244.9 590.3,242.8 590.5,239.9 590.7,236.5 590.9,232.7 591.1,228.9 591.3,225.3 591.5,222.4 591.7,220.5 591.9,220 592.1,221 592.3,223.4 592.5,227.1 592.7,231.4 592.9,236 593.1,240.1 593.3,243.6 593.5,246.4 593.7,248.7 593.9,250.9 594.1,253.3 594.3,255.9 594.5,258.1 594.7,259.5 594.9,259.5 595.1,257.6 595.3,253.9 595.5,249.1 595.7,244 595.9,239.7 596.1,236.4 596.3,234.2 596.5,232.8 596.7,231.9 596.9,231.6 597.1,232.1 597.3,233.5 597.5,235.8 597.6,238.9 597.8,242.4 598,245.7 598.2,248 598.4,249 598.6,248.4 598.8,246.6 599,244 599.2,241 599.4,237.8 599.6,234.5 599.8,231.4 600,228.6 600.2,226 600.4,224.1 600.6,223.1 600.8,222.9 601,223.7 601.2,225.2 601.4,227.4 601.6,230 601.8,232.9 602,235.7 602.2,238.2 602.4,240 602.6,241 602.8,241.2 603,240.8 603.2,240 603.4,239.1 603.6,238.4 603.8,237.8 604,237.5 604.2,237.6 604.4,238.3 604.6,239.7 604.8,241.9 605,244.5 605.2,247.1 605.4,249.2 605.5,250.6 605.7,250.9 605.9,250.5 606.1,249.7 606.3,248.9 606.5,248.2 606.7,247.7 606.9,247.4 607.1,247.3 607.3,247.6 607.5,248.2 607.7,249.1 607.9,250.2 608.1,251.2 608.3,252.1 608.5,252.7 608.7,253.2 608.9,253.4 609.1,253.4 609.3,253.1 609.5,252.2 609.7,250.7 609.9,248.5 610.1,245.7 610.3,242.5 610.5,239.2 610.7,235.9 610.9,233.1 611.1,230.8 611.3,229.1 611.5,228.3 611.7,228.3 611.9,228.9 612.1,230 612.3,231.4 612.5,233.1 612.7,235.1 612.9,237.2 613.1,239.3 613.2,240.8 613.4,241.3 613.6,240.6 613.8,238.8 614,236.6 614.2,234.4 614.4,232.4 614.6,230.9 614.8,230 615,230 615.2,231.1 615.4,233.3 615.6,236.7 615.8,240.7 616,244.8 616.2,248.2 616.4,250.5 616.6,251.2 616.8,250.4 617,248.2 617.2,245.1 617.4,241.3 617.6,237.1 617.8,233.2 618,229.9 618.2,227.8 618.4,227.2 618.6,228.3 618.8,230.6 619,233.7 619.2,236.8 619.4,239.6 619.6,241.7 619.8,243.1 620,243.9 620.2,244.1 620.4,243.8 620.6,243.4 620.8,243 621,242.5 621.1,241.8 621.3,240.6 621.5,238.4 621.7,235.4 621.9,231.7 622.1,228.1 622.3,225.3 622.5,223.9 622.7,224.3 622.9,226.5 623.1,230.6 623.3,236.2 623.5,243.1 623.7,250.5 623.9,257.7 624.1,263.8 624.3,268.1 624.5,270.2 624.7,270.1 " />
</g>

<g fill="none" stroke="#000000" stroke-opacity="1" stroke-width="1" stroke-linecap="square" stroke-linejoin="bevel" transform="matrix(1.00313,0,0,1.00313,0,0)"
font-family=".AppleSystemUIFont" font-size="13" font-weight="400" font-style="normal" 
>
</g>

<g fill="none" stroke="#000000" stroke-opacity="1" stroke-width="1" stroke-linecap="square" stroke-linejoin="bevel" transform="matrix(1.00313,0,0,1.00313,0,0)"
font-family=".AppleSystemUIFont" font-size="13" font-weight="400" font-style="normal" 
>
</g>

<g fill="none" stroke="#000000" stroke-opacity="1" stroke-width="1" stroke-linecap="round" stroke-linejoin="round" transform="matrix(1.00313,0,0,1.00313,0,0)"
font-family=".AppleSystemUIFont" font-size="13" font-weight="400" font-style="normal" 
>
<polyline fill="none" vector-effect="none" points="32.5,11.5 32.5,457.5 624.5,457.5 624.5,11.5 32.5,11.5 " />
</g>

<g fill="none" stroke="#000000" stroke-opacity="1" stroke-width="1" stroke-linecap="square" stroke-linejoin="bevel" transform="matrix(1.00313,0,0,1.00313,0,0)"
font-family=".AppleSystemUIFont" font-size="13" font-weight="400" font-style="normal" 
>
</g>

<g fill="none" stroke="#000000" stroke-opacity="1" stroke-width="1" stroke-linecap="square" stroke-linejoin="bevel" transform="matrix(1,0,0,1,0,0)"
font-family=".AppleSystemUIFont" font-size="13" font-weight="400" font-style="normal" 
>
</g>
</g>
</svg>
